<svg version="1.1" xmlns="http://www.w3.org/2000/svg" viewBox="0 0 413.58147775663207 294.31091829037865">
  <!-- svg-source:excalidraw -->
  <defs>
    <style>
      @font-face {
        font-family: "Virgil";
        src: url("https://excalidraw.com/FG_Virgil.woff2");
      }
      @font-face {
        font-family: "Cascadia";
        src: url("https://excalidraw.com/Cascadia.woff2");
      }
    </style>
  </defs>
  <g transform="translate(43.342740057839364 10) rotate(0 19.68359375 16.31640625)"><path d="M19.68359375 0 C23.690177639257744 -0.20831820565807094, 29.105204637912966 1.57013190408004, 32.335963926603405 3.817313910515738 C35.56672321529385 6.064495916951436, 38.33579580736445 10.040209461200142, 39.068149482142644 13.483092038614187 C39.80050315692084 16.92597461602823, 38.83881433803984 21.44698924795735, 36.7300859752726 24.474609375 C34.62135761250536 27.50222950204265, 30.378892269007878 30.45311222989173, 26.41577930553924 31.648812800870076 C22.4526663420706 32.84451337184842, 16.914521157929403 32.84451337184842, 12.951408194460763 31.648812800870076 C8.988295230992122 30.45311222989173, 4.745829887494629 27.50222950204265, 2.6371015247273952 24.474609375 C0.5283731619601615 21.44698924795735, -0.43331565692083984 16.925974616028228, 0.2990380178573595 13.483092038614185 C1.0313916926355589 10.040209461200142, 3.800464284706152 6.0644959169514365, 7.031223573396591 3.8173139105157397 C10.26198286208703 1.5701319040800423, 17.574865387232762 0.5818309642526233, 19.683593749999996 0 C21.79232211276723 -0.5818309642526233, 19.68359375 0.05438802083333333, 19.68359375 0.32632812499999986 M19.68359375 0 C23.690177639257744 -0.20831820565807094, 29.105204637912966 1.57013190408004, 32.335963926603405 3.817313910515738 C35.56672321529385 6.064495916951436, 38.33579580736445 10.040209461200142, 39.068149482142644 13.483092038614187 C39.80050315692084 16.92597461602823, 38.83881433803984 21.44698924795735, 36.7300859752726 24.474609375 C34.62135761250536 27.50222950204265, 30.378892269007878 30.45311222989173, 26.41577930553924 31.648812800870076 C22.4526663420706 32.84451337184842, 16.914521157929403 32.84451337184842, 12.951408194460763 31.648812800870076 C8.988295230992122 30.45311222989173, 4.745829887494629 27.50222950204265, 2.6371015247273952 24.474609375 C0.5283731619601615 21.44698924795735, -0.43331565692083984 16.925974616028228, 0.2990380178573595 13.483092038614185 C1.0313916926355589 10.040209461200142, 3.800464284706152 6.0644959169514365, 7.031223573396591 3.8173139105157397 C10.26198286208703 1.5701319040800423, 17.574865387232762 0.5818309642526233, 19.683593749999996 0 C21.79232211276723 -0.5818309642526233, 19.68359375 0.05438802083333333, 19.68359375 0.32632812499999986" stroke="none" stroke-width="0" fill="#000000"></path><path d="M19.68359375 0 C23.690177639257744 -0.20831820565807094, 29.105204637912966 1.57013190408004, 32.335963926603405 3.817313910515738 C35.56672321529385 6.064495916951436, 38.33579580736445 10.040209461200142, 39.068149482142644 13.483092038614187 C39.80050315692084 16.92597461602823, 38.83881433803984 21.44698924795735, 36.7300859752726 24.474609375 C34.62135761250536 27.50222950204265, 30.378892269007878 30.45311222989173, 26.41577930553924 31.648812800870076 C22.4526663420706 32.84451337184842, 16.914521157929403 32.84451337184842, 12.951408194460763 31.648812800870076 C8.988295230992122 30.45311222989173, 4.745829887494629 27.50222950204265, 2.6371015247273952 24.474609375 C0.5283731619601615 21.44698924795735, -0.43331565692083984 16.925974616028228, 0.2990380178573595 13.483092038614185 C1.0313916926355589 10.040209461200142, 3.800464284706152 6.0644959169514365, 7.031223573396591 3.8173139105157397 C10.26198286208703 1.5701319040800423, 17.574865387232762 0.5818309642526233, 19.683593749999996 0 C21.79232211276723 -0.5818309642526233, 19.68359375 0.05438802083333333, 19.68359375 0.32632812499999986 M19.68359375 0 C23.690177639257744 -0.20831820565807094, 29.105204637912966 1.57013190408004, 32.335963926603405 3.817313910515738 C35.56672321529385 6.064495916951436, 38.33579580736445 10.040209461200142, 39.068149482142644 13.483092038614187 C39.80050315692084 16.92597461602823, 38.83881433803984 21.44698924795735, 36.7300859752726 24.474609375 C34.62135761250536 27.50222950204265, 30.378892269007878 30.45311222989173, 26.41577930553924 31.648812800870076 C22.4526663420706 32.84451337184842, 16.914521157929403 32.84451337184842, 12.951408194460763 31.648812800870076 C8.988295230992122 30.45311222989173, 4.745829887494629 27.50222950204265, 2.6371015247273952 24.474609375 C0.5283731619601615 21.44698924795735, -0.43331565692083984 16.925974616028228, 0.2990380178573595 13.483092038614185 C1.0313916926355589 10.040209461200142, 3.800464284706152 6.0644959169514365, 7.031223573396591 3.8173139105157397 C10.26198286208703 1.5701319040800423, 17.574865387232762 0.5818309642526233, 19.683593749999996 0 C21.79232211276723 -0.5818309642526233, 19.68359375 0.05438802083333333, 19.68359375 0.32632812499999986" stroke="#000000" stroke-width="1" fill="none"></path></g><g transform="translate(323.5912103375593 10.396689248251676) rotate(0 19.68359375 16.57864401223776)"><path d="M19.68359375 0 C23.690177639257744 -0.21166630200037417, 29.105204637912966 1.595367110327988, 32.335963926603405 3.878665892215306 C35.56672321529385 6.161964674102624, 38.33579580736445 10.201576003633685, 39.068149482142644 13.699792691323907 C39.80050315692084 17.19800937901413, 38.83881433803984 21.791685891381615, 36.7300859752726 24.86796601835664 C34.62135761250536 27.944246145331665, 30.378892269007878 30.942555547371157, 26.41577930553924 32.15747345317406 C22.4526663420706 33.37239135897697, 16.914521157929403 33.37239135897698, 12.951408194460763 32.15747345317407 C8.988295230992122 30.942555547371168, 4.745829887494629 27.944246145331668, 2.6371015247273952 24.86796601835664 C0.5283731619601615 21.79168589138161, -0.43331565692083984 17.198009379014124, 0.2990380178573595 13.699792691323903 C1.0313916926355589 10.201576003633681, 3.800464284706152 6.1619646741026255, 7.031223573396591 3.8786658922153077 C10.26198286208703 1.5953671103279903, 17.574865387232762 0.5911821686617585, 19.683593749999996 0 C21.79232211276723 -0.5911821686617585, 19.68359375 0.0552621467074606, 19.68359375 0.3315728802447566 M19.68359375 0 C23.690177639257744 -0.21166630200037417, 29.105204637912966 1.595367110327988, 32.335963926603405 3.878665892215306 C35.56672321529385 6.161964674102624, 38.33579580736445 10.201576003633685, 39.068149482142644 13.699792691323907 C39.80050315692084 17.19800937901413, 38.83881433803984 21.791685891381615, 36.7300859752726 24.86796601835664 C34.62135761250536 27.944246145331665, 30.378892269007878 30.942555547371157, 26.41577930553924 32.15747345317406 C22.4526663420706 33.37239135897697, 16.914521157929403 33.37239135897698, 12.951408194460763 32.15747345317407 C8.988295230992122 30.942555547371168, 4.745829887494629 27.944246145331668, 2.6371015247273952 24.86796601835664 C0.5283731619601615 21.79168589138161, -0.43331565692083984 17.198009379014124, 0.2990380178573595 13.699792691323903 C1.0313916926355589 10.201576003633681, 3.800464284706152 6.1619646741026255, 7.031223573396591 3.8786658922153077 C10.26198286208703 1.5953671103279903, 17.574865387232762 0.5911821686617585, 19.683593749999996 0 C21.79232211276723 -0.5911821686617585, 19.68359375 0.0552621467074606, 19.68359375 0.3315728802447566" stroke="none" stroke-width="0" fill="#000000"></path><path d="M19.68359375 0 C23.690177639257744 -0.21166630200037417, 29.105204637912966 1.595367110327988, 32.335963926603405 3.878665892215306 C35.56672321529385 6.161964674102624, 38.33579580736445 10.201576003633685, 39.068149482142644 13.699792691323907 C39.80050315692084 17.19800937901413, 38.83881433803984 21.791685891381615, 36.7300859752726 24.86796601835664 C34.62135761250536 27.944246145331665, 30.378892269007878 30.942555547371157, 26.41577930553924 32.15747345317406 C22.4526663420706 33.37239135897697, 16.914521157929403 33.37239135897698, 12.951408194460763 32.15747345317407 C8.988295230992122 30.942555547371168, 4.745829887494629 27.944246145331668, 2.6371015247273952 24.86796601835664 C0.5283731619601615 21.79168589138161, -0.43331565692083984 17.198009379014124, 0.2990380178573595 13.699792691323903 C1.0313916926355589 10.201576003633681, 3.800464284706152 6.1619646741026255, 7.031223573396591 3.8786658922153077 C10.26198286208703 1.5953671103279903, 17.574865387232762 0.5911821686617585, 19.683593749999996 0 C21.79232211276723 -0.5911821686617585, 19.68359375 0.0552621467074606, 19.68359375 0.3315728802447566 M19.68359375 0 C23.690177639257744 -0.21166630200037417, 29.105204637912966 1.595367110327988, 32.335963926603405 3.878665892215306 C35.56672321529385 6.161964674102624, 38.33579580736445 10.201576003633685, 39.068149482142644 13.699792691323907 C39.80050315692084 17.19800937901413, 38.83881433803984 21.791685891381615, 36.7300859752726 24.86796601835664 C34.62135761250536 27.944246145331665, 30.378892269007878 30.942555547371157, 26.41577930553924 32.15747345317406 C22.4526663420706 33.37239135897697, 16.914521157929403 33.37239135897698, 12.951408194460763 32.15747345317407 C8.988295230992122 30.942555547371168, 4.745829887494629 27.944246145331668, 2.6371015247273952 24.86796601835664 C0.5283731619601615 21.79168589138161, -0.43331565692083984 17.198009379014124, 0.2990380178573595 13.699792691323903 C1.0313916926355589 10.201576003633681, 3.800464284706152 6.1619646741026255, 7.031223573396591 3.8786658922153077 C10.26198286208703 1.5953671103279903, 17.574865387232762 0.5911821686617585, 19.683593749999996 0 C21.79232211276723 -0.5911821686617585, 19.68359375 0.0552621467074606, 19.68359375 0.3315728802447566" stroke="#000000" stroke-width="1" fill="none"></path></g><g transform="translate(10 236.8797563782593) rotate(0 196.6517961448598 8.374945239485982)"><path d="M0 0 L393.3035922897195 0 L393.3035922897195 16.749890478971963 L0 16.749890478971963" stroke="none" stroke-width="0" fill="#ced4da"></path><path d="M0 0 C96.65096016814279 0, 193.30192033628558 0, 393.3035922897195 0 M0 0 C154.0271257403639 0, 308.0542514807278 0, 393.3035922897195 0 M393.3035922897195 0 C393.3035922897195 6.556213539640678, 393.3035922897195 13.112427079281357, 393.3035922897195 16.749890478971963 M393.3035922897195 0 C393.3035922897195 6.045060455269186, 393.3035922897195 12.090120910538372, 393.3035922897195 16.749890478971963 M393.3035922897195 16.749890478971963 C293.50426767090823 16.749890478971963, 193.7049430520969 16.749890478971963, 0 16.749890478971963 M393.3035922897195 16.749890478971963 C309.4153128900658 16.749890478971963, 225.52703349041207 16.749890478971963, 0 16.749890478971963 M0 16.749890478971963 C0 12.726479862490987, 0 8.703069246010008, 0 0 M0 16.749890478971963 C0 12.648204731245407, 0 8.546518983518851, 0 0" stroke="#ced4da" stroke-width="1" fill="none"></path></g><g transform="translate(60.15362838825877 25.233801354895093) rotate(0 142.45117187500003 99.638671875)"><path d="M0 0 L284.90234375000006 0 L284.90234375000006 199.27734374999997 L0 199.27734374999997" stroke="none" stroke-width="0" fill="#ffffff"></path><path d="M0 0 C63.07558827744471 0, 126.15117655488942 0, 284.90234375000006 0 M0 0 C103.11746496393792 0, 206.23492992787584 0, 284.90234375000006 0 M284.90234375000006 0 C284.90234375000006 64.04455031433281, 284.90234375000006 128.08910062866562, 284.90234375000006 199.27734374999997 M284.90234375000006 0 C284.90234375000006 53.34571020841577, 284.90234375000006 106.69142041683153, 284.90234375000006 199.27734374999997 M284.90234375000006 199.27734374999997 C212.19415922297964 199.27734374999997, 139.4859746959592 199.27734374999997, 0 199.27734374999997 M284.90234375000006 199.27734374999997 C190.29460371680585 199.27734374999997, 95.68686368361162 199.27734374999997, 0 199.27734374999997 M0 199.27734374999997 C0 144.302394715467, 0 89.327445680934, 0 0 M0 199.27734374999997 C0 126.5633996009037, 0 53.849455451807415, 0 0" stroke="#ffffff" stroke-width="1" fill="none"></path></g><g transform="translate(197.10579731308394 12.499426354895093) rotate(0 4.21875 5.01171875)"><path d="M4.58401714904733 0.8784519473402979 C5.453002227624872 1.2122545752144822, 6.946587552217193 1.8224851566403202, 7.701073275567012 2.436101256434057 C8.45555899891683 3.0497173562277937, 9.14546705425101 3.50779763056767, 9.110931489146243 4.560148546102719 C9.076395924041474 5.612499461637769, 8.181795245467733 7.961704975753562, 7.493859884938404 8.750206749644354 C6.805924524409075 9.538708523535146, 5.898128027020666 9.176708215934324, 4.983319325970271 9.291159189447473 C4.068510624919876 9.405610162960622, 2.7065617246735334 9.938755566980056, 2.005007678636032 9.436912590723246 C1.3034536325985302 8.935069614466435, 1.1581849530621893 7.166231433384905, 0.7739950497452623 6.2801013319066135 C0.38980514642833536 5.393971230428322, -0.33660694628836724 5.104033982321921, -0.3001317412655302 4.1201319818535005 C-0.2636565362426932 3.1362299813850805, -0.1773990149990219 0.9556725140448652, 0.9928462798822846 0.3766893290960933 C2.163091574763591 -0.20229385585267856, 5.65995752245918 0.6493677839553319, 6.721340028022309 0.6462328721608692 C7.782722533585437 0.6430979603664065, 7.439052788040502 0.4412001280301207, 7.361141313261054 0.357879858329317 M3.728596601150191 -0.5702361658234603 C4.585528065643912 -0.4082143274939388, 5.7327683708387225 0.835942659540538, 6.270392066185414 1.6746717611435944 C6.808015761532105 2.513400862746651, 6.584802782388421 3.5458140601635733, 6.954338773230337 4.462138443794878 C7.323874764072252 5.378462827426182, 8.754553752282725 6.441457327598168, 8.487608011236903 7.17261806293142 C8.220662270191081 7.903778798264672, 6.357537044123674 8.295868098751576, 5.352664326955407 8.84910285579439 C4.347791609787139 9.402337612837204, 3.034061812550204 10.860303626342686, 2.4583717082272982 10.492026605188304 C1.8826816039043925 10.123749584033922, 2.303947594547252 7.55762425265207, 1.8985237010179725 6.639440728868095 C1.4930998074886932 5.721257205084121, 0.15296070233099068 5.758343360823208, 0.025828347051622735 4.982925462484459 C-0.10130400822774521 4.207507564145709, 0.6395254708096192 3.0321522970051573, 1.1357295693417648 1.9869333388356014 C1.6319336678739105 0.9417143806660453, 2.764660067979149 -0.8583093404069124, 3.003052938244497 -1.2883882865328786 C3.241445808509845 -1.7184672326588448, 2.4501673890953968 -1.0454404659982535, 2.5660867909338534 -0.5935403379201958" stroke="none" stroke-width="0" fill="#ced4da"></path><path d="M4.841016447486717 -0.5971504696502468 C5.625921059762803 -0.9190751940457416, 5.878492748068954 -0.5945086802873347, 6.529068044687714 0.3422229653981388 C7.179643341306473 1.2789546110836123, 8.527138634961291 3.7226027672195294, 8.744468227199276 5.023239404462594 C8.96179781943726 6.32387604170566, 8.506468271298743 7.330933477624897, 7.833045598115621 8.146042788856528 C7.159622924932498 8.96115210008816, 5.383252513688455 9.564514529987708, 4.70393218810054 9.913895271852383 C4.024611862512624 10.263276013717057, 4.468665723961952 10.608661738772252, 3.7571236445881295 10.242327240044574 C3.0455815652143063 9.875992741316896, 1.1241694013704104 8.578916484324031, 0.4346797118576009 7.715888279486313 C-0.25480997765520874 6.852860074648594, -0.5043836339526703 6.157869496058719, -0.37981449248872856 5.064158011018261 C-0.2552453510247868 3.9704465259778026, 0.2775179798784637 2.0442719144962878, 1.1820945606412514 1.1536193692435632 C2.086671141404039 0.2629668239908386, 4.520883320770513 -0.11169759445792748, 5.0476449920879976 -0.27975726049808713 C5.574406663405482 -0.4478169265382468, 4.416075013473238 0.058522376543985885, 4.3426645885461586 0.14526137300260533 M1.3976819244982233 1.3774671847315973 C2.153704849790615 0.6150992436787109, 2.92172364259392 -0.9523410293234503, 3.9386292908615568 -1.0814620354737876 C4.955534939129194 -1.2105830416241248, 6.632049743857717 -0.516539352567938, 7.499115814104044 0.6027411478295739 C8.366181884350372 1.7220216482270858, 9.080974130851246 4.369020085464604, 9.14102571233952 5.634220966911284 C9.201077293827794 6.899421848357965, 8.470966086349964 7.682338620260973, 7.859425303033689 8.193946436509657 C7.247884519717413 8.705554252758342, 6.352430158220142 8.64196502816821, 5.471781012441868 8.703867864403389 C4.591131866663594 8.765770700638567, 3.7060099609108064 9.00794443805298, 2.5755304283640457 8.565363453920728 C1.445050895817285 8.122782469788476, -0.8548584704494762 7.114087442579807, -1.3110961828386962 6.048381959609871 C-1.7673338952279163 4.982676476639934, -0.5269207369987121 2.904438109886396, -0.1618958459712747 2.17113055610111 C0.20312904505616264 1.4378230023158238, 0.3675456738830837 1.8930267620580385, 0.8790531633259278 1.6485366368981555 C1.3905606527687717 1.4040465117382726, 2.650260309096684 1.0615274004303579, 2.90714909068579 0.7041898051418114" stroke="#ced4da" stroke-width="1" fill="none"></path></g><g transform="translate(345.57277895533144 24.82719624125866) rotate(0 8.365258086218944 103.96892755681822)"><path d="M0 0 L16.730516172437888 0 L16.730516172437888 207.9378551136364 L0 207.9378551136364" stroke="none" stroke-width="0" fill="#000000"></path><path d="M0 0 C4.549444800088906 0, 9.098889600177811 0, 16.730516172437888 0 M0 0 C5.940641785243871 0, 11.881283570487742 0, 16.730516172437888 0 M16.730516172437888 0 C16.730516172437888 47.102990558956705, 16.730516172437888 94.20598111791341, 16.730516172437888 207.9378551136364 M16.730516172437888 0 C16.730516172437888 43.392088525510566, 16.730516172437888 86.78417705102113, 16.730516172437888 207.9378551136364 M16.730516172437888 207.9378551136364 C10.052510915235633 207.9378551136364, 3.374505658033378 207.9378551136364, 0 207.9378551136364 M16.730516172437888 207.9378551136364 C10.588578164591436 207.9378551136364, 4.446640156744984 207.9378551136364, 0 207.9378551136364 M0 207.9378551136364 C0 125.34751822667424, 0 42.757181339712076, 0 0 M0 207.9378551136364 C0 156.60461716274412, 0 105.27137921185185, 0 0" stroke="#000000" stroke-width="1" fill="none"></path></g><g transform="translate(43.38900043808394 26.763699191433545) rotate(0 7.873046875 102.130859375)"><path d="M0 0 L15.74609375 0 L15.74609375 204.26171875 L0 204.26171875" stroke="none" stroke-width="0" fill="#000000"></path><path d="M0 0 C4.576044229539912 0, 9.152088459079824 0, 15.74609375 0 M0 0 C6.08286970877125 0, 12.1657394175425 0, 15.74609375 0 M15.74609375 0 C15.74609375 45.67691039531019, 15.74609375 91.35382079062038, 15.74609375 204.26171875 M15.74609375 0 C15.74609375 61.08022528487382, 15.74609375 122.16045056974764, 15.74609375 204.26171875 M15.74609375 204.26171875 C10.50944130084863 204.26171875, 5.2727888516972605 204.26171875, 0 204.26171875 M15.74609375 204.26171875 C9.550200228788526 204.26171875, 3.3543067075770523 204.26171875, 0 204.26171875 M0 204.26171875 C0 128.427419124432, 0 52.593119498863956, 0 0 M0 204.26171875 C0 160.09474138604818, 0 115.92776402209637, 0 0" stroke="#000000" stroke-width="1" fill="none"></path></g><g transform="translate(43.38121525451743 222.97403572989487) rotate(0 159.38084571678317 6.369140625)"><path d="M0 0 L318.7616914335664 0 L318.7616914335664 12.738281249999998 L0 12.738281249999998" stroke="none" stroke-width="0" fill="#000000"></path><path d="M0 0 C99.98141898804094 0, 199.9628379760819 0, 318.7616914335664 0 M0 0 C99.49069775485158 0, 198.98139550970316 0, 318.7616914335664 0 M318.7616914335664 0 C318.7616914335664 5.060597465875253, 318.7616914335664 10.121194931750505, 318.7616914335664 12.738281249999998 M318.7616914335664 0 C318.7616914335664 4.512208822013417, 318.7616914335664 9.024417644026833, 318.7616914335664 12.738281249999998 M318.7616914335664 12.738281249999998 C201.92699051387797 12.738281249999998, 85.09228959418951 12.738281249999998, 0 12.738281249999998 M318.7616914335664 12.738281249999998 C191.34604874365897 12.738281249999998, 63.93040605375154 12.738281249999998, 0 12.738281249999998 M0 12.738281249999998 C0 9.11104207903736, 0 5.483802908074721, 0 0 M0 12.738281249999998 C0 9.29791859719662, 0 5.8575559443932415, 0 0" stroke="#000000" stroke-width="1" fill="none"></path></g><g transform="translate(59.10660314787424 10.874240201026737) rotate(0 143.0770323426573 6.676054414335681)"><path d="M0 0 L286.1540646853146 0 L286.1540646853146 13.352108828671366 L0 13.352108828671366" stroke="none" stroke-width="0" fill="#000000"></path><path d="M0 0 C78.11253672750806 0, 156.22507345501612 0, 286.1540646853146 0 M0 0 C78.70692392696328 0, 157.41384785392657 0, 286.1540646853146 0 M286.1540646853146 0 C286.1540646853146 4.94367115755163, 286.1540646853146 9.88734231510326, 286.1540646853146 13.352108828671366 M286.1540646853146 0 C286.1540646853146 3.3518056202251603, 286.1540646853146 6.7036112404503205, 286.1540646853146 13.352108828671366 M286.1540646853146 13.352108828671366 C215.76317922827764 13.352108828671366, 145.3722937712407 13.352108828671366, 0 13.352108828671366 M286.1540646853146 13.352108828671366 C205.8741767044781 13.352108828671366, 125.59428872364157 13.352108828671366, 0 13.352108828671366 M0 13.352108828671366 C0 8.811297450030729, 0 4.270486071390094, 0 0 M0 13.352108828671366 C0 9.56663711994086, 0 5.781165411210358, 0 0" stroke="#000000" stroke-width="1" fill="none"></path></g><g transform="translate(131.63744889018676 239.30739948573608) rotate(0 70.84367698598126 5.0489193925233735)"><path d="M0 0 L141.68735397196258 0 L141.68735397196258 10.097838785046747 L0 10.097838785046747" stroke="none" stroke-width="0" fill="#868e96"></path><path d="M0 0 C33.619547177895406 0, 67.23909435579081 0, 141.68735397196258 0 M0 0 C29.294740345328563 0, 58.589480690657126 0, 141.68735397196258 0 M141.68735397196258 0 C141.68735397196258 2.390104331196237, 141.68735397196258 4.780208662392474, 141.68735397196258 10.097838785046747 M141.68735397196258 0 C141.68735397196258 3.7212854672924336, 141.68735397196258 7.442570934584867, 141.68735397196258 10.097838785046747 M141.68735397196258 10.097838785046747 C85.83758025609285 10.097838785046747, 29.987806540223133 10.097838785046747, 0 10.097838785046747 M141.68735397196258 10.097838785046747 C93.2142834352621 10.097838785046747, 44.74121289856164 10.097838785046747, 0 10.097838785046747 M0 10.097838785046747 C0 8.07779480610221, 0 6.057750827157673, 0 0 M0 10.097838785046747 C0 6.657808844405254, 0 3.2177789037637616, 0 0" stroke="#868e96" stroke-width="1" fill="none"></path></g><g transform="translate(18.802095502336215 253.59235494718467) rotate(0 187.24211448598126 7.038788697429908)"><path d="M0 0 L374.4842289719626 0 L374.4842289719626 14.077577394859816 L0 14.077577394859816" stroke="none" stroke-width="0" fill="#ced4da"></path><path d="M0 0 C107.89949028917961 0, 215.79898057835922 0, 374.4842289719626 0 M0 0 C145.4912882898689 0, 290.9825765797378 0, 374.4842289719626 0 M374.4842289719626 0 C374.4842289719626 3.911616976755719, 374.4842289719626 7.823233953511438, 374.4842289719626 14.077577394859816 M374.4842289719626 0 C374.4842289719626 4.415989202761222, 374.4842289719626 8.831978405522444, 374.4842289719626 14.077577394859816 M374.4842289719626 14.077577394859816 C243.6139771792705 14.077577394859816, 112.74372538657843 14.077577394859816, 0 14.077577394859816 M374.4842289719626 14.077577394859816 C232.91146132921048 14.077577394859816, 91.33869368645838 14.077577394859816, 0 14.077577394859816 M0 14.077577394859816 C0 10.70283817318697, 0 7.328098951514125, 0 0 M0 14.077577394859816 C0 10.493114231134316, 0 6.908651067408815, 0 0" stroke="#ced4da" stroke-width="1" fill="none"></path></g><g transform="translate(10.294179369535186 241.03420458070076) rotate(0 14.957157258064512 13.518145161290306)"><path d="M14.957157258064514 0 C18.001677789243217 -0.17259166636803572, 22.116445214554016 1.3008545311089639, 24.571432619681474 3.162645179208166 C27.02642002480893 5.024435827307368, 29.130581223451646 8.318315128140664, 29.687081688829263 11.170743888595213 C30.24358215420688 14.023172649049762, 29.51281463888334 17.768833987356736, 27.91043541194718 20.27721774193546 C26.30805618501102 22.785601496514182, 23.08429419771738 25.230408303712196, 20.072806327212305 26.221046416067544 C17.06131845670723 27.211684528422893, 12.852996059421798 27.211684528422893, 9.841508188916722 26.221046416067544 C6.830020318411645 25.230408303712196, 3.6062583311180045 22.785601496514182, 2.003879104181845 20.27721774193546 C0.40149987724568503 17.768833987356736, -0.32926763807785553 14.02317264904976, 0.2272328272997619 11.170743888595212 C0.7837332926773793 8.318315128140663, 2.8878944913200915 5.02443582730737, 5.342881896447549 3.162645179208168 C7.797869301575007 1.3008545311089659, 13.354778031128347 0.48204704599706033, 14.957157258064509 0 C16.55953648500067 -0.48204704599706033, 14.957157258064514 0.04506048387096731, 14.957157258064514 0.2703629032258057 M14.957157258064514 0 C18.001677789243217 -0.17259166636803572, 22.116445214554016 1.3008545311089639, 24.571432619681474 3.162645179208166 C27.02642002480893 5.024435827307368, 29.130581223451646 8.318315128140664, 29.687081688829263 11.170743888595213 C30.24358215420688 14.023172649049762, 29.51281463888334 17.768833987356736, 27.91043541194718 20.27721774193546 C26.30805618501102 22.785601496514182, 23.08429419771738 25.230408303712196, 20.072806327212305 26.221046416067544 C17.06131845670723 27.211684528422893, 12.852996059421798 27.211684528422893, 9.841508188916722 26.221046416067544 C6.830020318411645 25.230408303712196, 3.6062583311180045 22.785601496514182, 2.003879104181845 20.27721774193546 C0.40149987724568503 17.768833987356736, -0.32926763807785553 14.02317264904976, 0.2272328272997619 11.170743888595212 C0.7837332926773793 8.318315128140663, 2.8878944913200915 5.02443582730737, 5.342881896447549 3.162645179208168 C7.797869301575007 1.3008545311089659, 13.354778031128347 0.48204704599706033, 14.957157258064509 0 C16.55953648500067 -0.48204704599706033, 14.957157258064514 0.04506048387096731, 14.957157258064514 0.2703629032258057" stroke="none" stroke-width="0" fill="#ced4da"></path><path d="M14.957157258064514 0 C18.001677789243217 -0.17259166636803572, 22.116445214554016 1.3008545311089639, 24.571432619681474 3.162645179208166 C27.02642002480893 5.024435827307368, 29.130581223451646 8.318315128140664, 29.687081688829263 11.170743888595213 C30.24358215420688 14.023172649049762, 29.51281463888334 17.768833987356736, 27.91043541194718 20.27721774193546 C26.30805618501102 22.785601496514182, 23.08429419771738 25.230408303712196, 20.072806327212305 26.221046416067544 C17.06131845670723 27.211684528422893, 12.852996059421798 27.211684528422893, 9.841508188916722 26.221046416067544 C6.830020318411645 25.230408303712196, 3.6062583311180045 22.785601496514182, 2.003879104181845 20.27721774193546 C0.40149987724568503 17.768833987356736, -0.32926763807785553 14.02317264904976, 0.2272328272997619 11.170743888595212 C0.7837332926773793 8.318315128140663, 2.8878944913200915 5.02443582730737, 5.342881896447549 3.162645179208168 C7.797869301575007 1.3008545311089659, 13.354778031128347 0.48204704599706033, 14.957157258064509 0 C16.55953648500067 -0.48204704599706033, 14.957157258064514 0.04506048387096731, 14.957157258064514 0.2703629032258057 M14.957157258064514 0 C18.001677789243217 -0.17259166636803572, 22.116445214554016 1.3008545311089639, 24.571432619681474 3.162645179208166 C27.02642002480893 5.024435827307368, 29.130581223451646 8.318315128140664, 29.687081688829263 11.170743888595213 C30.24358215420688 14.023172649049762, 29.51281463888334 17.768833987356736, 27.91043541194718 20.27721774193546 C26.30805618501102 22.785601496514182, 23.08429419771738 25.230408303712196, 20.072806327212305 26.221046416067544 C17.06131845670723 27.211684528422893, 12.852996059421798 27.211684528422893, 9.841508188916722 26.221046416067544 C6.830020318411645 25.230408303712196, 3.6062583311180045 22.785601496514182, 2.003879104181845 20.27721774193546 C0.40149987724568503 17.768833987356736, -0.32926763807785553 14.02317264904976, 0.2272328272997619 11.170743888595212 C0.7837332926773793 8.318315128140663, 2.8878944913200915 5.02443582730737, 5.342881896447549 3.162645179208168 C7.797869301575007 1.3008545311089659, 13.354778031128347 0.48204704599706033, 14.957157258064509 0 C16.55953648500067 -0.48204704599706033, 14.957157258064514 0.04506048387096731, 14.957157258064514 0.2703629032258057" stroke="#ced4da" stroke-width="1" fill="none"></path></g><g transform="translate(373.66716324050304 241.27462796779804) rotate(0 14.957157258064512 13.518145161290306)"><path d="M14.957157258064514 0 C18.001677789243217 -0.17259166636803572, 22.116445214554016 1.3008545311089639, 24.571432619681474 3.162645179208166 C27.02642002480893 5.024435827307368, 29.130581223451646 8.318315128140664, 29.687081688829263 11.170743888595213 C30.24358215420688 14.023172649049762, 29.51281463888334 17.768833987356736, 27.91043541194718 20.27721774193546 C26.30805618501102 22.785601496514182, 23.08429419771738 25.230408303712196, 20.072806327212305 26.221046416067544 C17.06131845670723 27.211684528422893, 12.852996059421798 27.211684528422893, 9.841508188916722 26.221046416067544 C6.830020318411645 25.230408303712196, 3.6062583311180045 22.785601496514182, 2.003879104181845 20.27721774193546 C0.40149987724568503 17.768833987356736, -0.32926763807785553 14.02317264904976, 0.2272328272997619 11.170743888595212 C0.7837332926773793 8.318315128140663, 2.8878944913200915 5.02443582730737, 5.342881896447549 3.162645179208168 C7.797869301575007 1.3008545311089659, 13.354778031128347 0.48204704599706033, 14.957157258064509 0 C16.55953648500067 -0.48204704599706033, 14.957157258064514 0.04506048387096731, 14.957157258064514 0.2703629032258057 M14.957157258064514 0 C18.001677789243217 -0.17259166636803572, 22.116445214554016 1.3008545311089639, 24.571432619681474 3.162645179208166 C27.02642002480893 5.024435827307368, 29.130581223451646 8.318315128140664, 29.687081688829263 11.170743888595213 C30.24358215420688 14.023172649049762, 29.51281463888334 17.768833987356736, 27.91043541194718 20.27721774193546 C26.30805618501102 22.785601496514182, 23.08429419771738 25.230408303712196, 20.072806327212305 26.221046416067544 C17.06131845670723 27.211684528422893, 12.852996059421798 27.211684528422893, 9.841508188916722 26.221046416067544 C6.830020318411645 25.230408303712196, 3.6062583311180045 22.785601496514182, 2.003879104181845 20.27721774193546 C0.40149987724568503 17.768833987356736, -0.32926763807785553 14.02317264904976, 0.2272328272997619 11.170743888595212 C0.7837332926773793 8.318315128140663, 2.8878944913200915 5.02443582730737, 5.342881896447549 3.162645179208168 C7.797869301575007 1.3008545311089659, 13.354778031128347 0.48204704599706033, 14.957157258064509 0 C16.55953648500067 -0.48204704599706033, 14.957157258064514 0.04506048387096731, 14.957157258064514 0.2703629032258057" stroke="none" stroke-width="0" fill="#ced4da"></path><path d="M14.957157258064514 0 C18.001677789243217 -0.17259166636803572, 22.116445214554016 1.3008545311089639, 24.571432619681474 3.162645179208166 C27.02642002480893 5.024435827307368, 29.130581223451646 8.318315128140664, 29.687081688829263 11.170743888595213 C30.24358215420688 14.023172649049762, 29.51281463888334 17.768833987356736, 27.91043541194718 20.27721774193546 C26.30805618501102 22.785601496514182, 23.08429419771738 25.230408303712196, 20.072806327212305 26.221046416067544 C17.06131845670723 27.211684528422893, 12.852996059421798 27.211684528422893, 9.841508188916722 26.221046416067544 C6.830020318411645 25.230408303712196, 3.6062583311180045 22.785601496514182, 2.003879104181845 20.27721774193546 C0.40149987724568503 17.768833987356736, -0.32926763807785553 14.02317264904976, 0.2272328272997619 11.170743888595212 C0.7837332926773793 8.318315128140663, 2.8878944913200915 5.02443582730737, 5.342881896447549 3.162645179208168 C7.797869301575007 1.3008545311089659, 13.354778031128347 0.48204704599706033, 14.957157258064509 0 C16.55953648500067 -0.48204704599706033, 14.957157258064514 0.04506048387096731, 14.957157258064514 0.2703629032258057 M14.957157258064514 0 C18.001677789243217 -0.17259166636803572, 22.116445214554016 1.3008545311089639, 24.571432619681474 3.162645179208166 C27.02642002480893 5.024435827307368, 29.130581223451646 8.318315128140664, 29.687081688829263 11.170743888595213 C30.24358215420688 14.023172649049762, 29.51281463888334 17.768833987356736, 27.91043541194718 20.27721774193546 C26.30805618501102 22.785601496514182, 23.08429419771738 25.230408303712196, 20.072806327212305 26.221046416067544 C17.06131845670723 27.211684528422893, 12.852996059421798 27.211684528422893, 9.841508188916722 26.221046416067544 C6.830020318411645 25.230408303712196, 3.6062583311180045 22.785601496514182, 2.003879104181845 20.27721774193546 C0.40149987724568503 17.768833987356736, -0.32926763807785553 14.02317264904976, 0.2272328272997619 11.170743888595212 C0.7837332926773793 8.318315128140663, 2.8878944913200915 5.02443582730737, 5.342881896447549 3.162645179208168 C7.797869301575007 1.3008545311089659, 13.354778031128347 0.48204704599706033, 14.957157258064509 0 C16.55953648500067 -0.48204704599706033, 14.957157258064514 0.04506048387096731, 14.957157258064514 0.2703629032258057" stroke="#ced4da" stroke-width="1" fill="none"></path></g><g transform="translate(85.69499599427672 90.33672566682168) rotate(0 116.34532683486239 21.335650802752298)"><path d="M0 0 L232.69065366972472 0 L232.69065366972472 42.67130160550459 L0 42.67130160550459" stroke="none" stroke-width="0" fill="#12b886"></path><path d="M0 0 C87.03596088285313 0, 174.07192176570626 0, 232.69065366972472 0 M0 0 C62.628970545079895 0, 125.25794109015979 0, 232.69065366972472 0 M232.69065366972472 0 C232.69065366972472 8.613215507471862, 232.69065366972472 17.226431014943724, 232.69065366972472 42.67130160550459 M232.69065366972472 0 C232.69065366972472 10.873397618360029, 232.69065366972472 21.746795236720057, 232.69065366972472 42.67130160550459 M232.69065366972472 42.67130160550459 C155.9712940600823 42.67130160550459, 79.25193445043985 42.67130160550459, 0 42.67130160550459 M232.69065366972472 42.67130160550459 C182.50386264378966 42.67130160550459, 132.3170716178546 42.67130160550459, 0 42.67130160550459 M0 42.67130160550459 C0 33.91962679391152, 0 25.167951982318442, 0 0 M0 42.67130160550459 C0 31.79916170228895, 0 20.927021799073312, 0 0" stroke="#12b886" stroke-width="1" fill="none"></path></g><g transform="translate(85.30338915438733 141.458428648473) rotate(0 30.17488532110093 19.3879013761468)"><path d="M0 0 L60.34977064220187 0 L60.34977064220187 38.7758027522936 L0 38.7758027522936" stroke="none" stroke-width="0" fill="#fa5252"></path><path d="M0 0 C14.208352228468014 0, 28.416704456936028 0, 60.34977064220187 0 M0 0 C18.480244847967775 0, 36.96048969593555 0, 60.34977064220187 0 M60.34977064220187 0 C60.34977064220187 14.76981127222786, 60.34977064220187 29.53962254445572, 60.34977064220187 38.7758027522936 M60.34977064220187 0 C60.34977064220187 14.483786068827088, 60.34977064220187 28.967572137654177, 60.34977064220187 38.7758027522936 M60.34977064220187 38.7758027522936 C42.519998577556386 38.7758027522936, 24.690226512910904 38.7758027522936, 0 38.7758027522936 M60.34977064220187 38.7758027522936 C36.565576590276706 38.7758027522936, 12.781382538351544 38.7758027522936, 0 38.7758027522936 M0 38.7758027522936 C0 24.65649417227316, 0 10.537185592252719, 0 0 M0 38.7758027522936 C0 30.70573131344897, 0 22.63565987460434, 0 0" stroke="#fa5252" stroke-width="1" fill="none"></path></g><g transform="translate(152.27223622777 140.84202956590406) rotate(0 33.919868119266056 19.3879013761468)"><path d="M0 0 L67.8397362385321 0 L67.8397362385321 38.7758027522936 L0 38.7758027522936" stroke="none" stroke-width="0" fill="#82c91e"></path><path d="M0 0 C14.118895779790087 0, 28.237791559580174 0, 67.8397362385321 0 M0 0 C21.761074221375637 0, 43.52214844275127 0, 67.8397362385321 0 M67.8397362385321 0 C67.8397362385321 10.510926642579326, 67.8397362385321 21.021853285158652, 67.8397362385321 38.7758027522936 M67.8397362385321 0 C67.8397362385321 15.308357873623677, 67.8397362385321 30.616715747247355, 67.8397362385321 38.7758027522936 M67.8397362385321 38.7758027522936 C43.627549463200424 38.7758027522936, 19.415362687868758 38.7758027522936, 0 38.7758027522936 M67.8397362385321 38.7758027522936 C43.54752760926603 38.7758027522936, 19.255318979999963 38.7758027522936, 0 38.7758027522936 M0 38.7758027522936 C0 24.77164560134728, 0 10.767488450400958, 0 0 M0 38.7758027522936 C0 28.232817819461918, 0 17.689832886630235, 0 0" stroke="#82c91e" stroke-width="1" fill="none"></path></g><g transform="translate(228.21578154473468 140.35822796039946) rotate(0 44.65130447247705 19.3879013761468)"><path d="M0 0 L89.3026089449541 0 L89.3026089449541 38.7758027522936 L0 38.7758027522936" stroke="none" stroke-width="0" fill="#fab005"></path><path d="M0 0 C31.669033222638934 0, 63.33806644527787 0, 89.3026089449541 0 M0 0 C25.593413924543704 0, 51.18682784908741 0, 89.3026089449541 0 M89.3026089449541 0 C89.3026089449541 9.454927810446693, 89.3026089449541 18.909855620893385, 89.3026089449541 38.7758027522936 M89.3026089449541 0 C89.3026089449541 10.720889432158984, 89.3026089449541 21.441778864317968, 89.3026089449541 38.7758027522936 M89.3026089449541 38.7758027522936 C66.70156590018581 38.7758027522936, 44.10052285541754 38.7758027522936, 0 38.7758027522936 M89.3026089449541 38.7758027522936 C59.376795700121555 38.7758027522936, 29.450982455289008 38.7758027522936, 0 38.7758027522936 M0 38.7758027522936 C0 29.487970221509755, 0 20.200137690725906, 0 0 M0 38.7758027522936 C0 29.27959650983088, 0 19.783390267368162, 0 0" stroke="#fab005" stroke-width="1" fill="none"></path></g><g transform="translate(60.6814248745593 25.60380647784592) rotate(0 142.0930455942623 9.816854508196712)"><path d="M0 0 L284.1860911885246 0 L284.1860911885246 19.633709016393425 L0 19.633709016393425" stroke="none" stroke-width="0" fill="#ced4da"></path><path d="M0 0 C84.23826139488945 0, 168.4765227897789 0, 284.1860911885246 0 M0 0 C105.35139703694246 0, 210.70279407388492 0, 284.1860911885246 0 M284.1860911885246 0 C284.1860911885246 6.034676948719468, 284.1860911885246 12.069353897438935, 284.1860911885246 19.633709016393425 M284.1860911885246 0 C284.1860911885246 6.863758140502417, 284.1860911885246 13.727516281004833, 284.1860911885246 19.633709016393425 M284.1860911885246 19.633709016393425 C226.85357441486377 19.633709016393425, 169.52105764120296 19.633709016393425, 0 19.633709016393425 M284.1860911885246 19.633709016393425 C201.375398643722 19.633709016393425, 118.5647060989194 19.633709016393425, 0 19.633709016393425 M0 19.633709016393425 C0 13.356481236340056, 0 7.079253456286686, 0 0 M0 19.633709016393425 C0 15.216805789452444, 0 10.79990256251146, 0 0" stroke="#ced4da" stroke-width="1" fill="none"></path></g><g transform="translate(86.76685007947731 55.461004223747466) rotate(0 71.55641649590166 12.837794569672141)"><path d="M0 0 L143.11283299180332 0 L143.11283299180332 25.675589139344282 L0 25.675589139344282" stroke="none" stroke-width="0" fill="#000000"></path><path d="M0 0 C47.331452688995654 0, 94.66290537799131 0, 143.11283299180332 0 M0 0 C52.662000701340574 0, 105.32400140268115 0, 143.11283299180332 0 M143.11283299180332 0 C143.11283299180332 6.345680566458621, 143.11283299180332 12.691361132917242, 143.11283299180332 25.675589139344282 M143.11283299180332 0 C143.11283299180332 10.210671061122419, 143.11283299180332 20.421342122244837, 143.11283299180332 25.675589139344282 M143.11283299180332 25.675589139344282 C103.3307627078159 25.675589139344282, 63.548692423828484 25.675589139344282, 0 25.675589139344282 M143.11283299180332 25.675589139344282 C109.80633656643032 25.675589139344282, 76.49984014105732 25.675589139344282, 0 25.675589139344282 M0 25.675589139344282 C0 17.92795666082415, 0 10.180324182304018, 0 0 M0 25.675589139344282 C0 18.46674360519308, 0 11.25789807104188, 0 0" stroke="#000000" stroke-width="1" fill="none"></path></g><g transform="translate(238.0282232057391 55.22654588807512) rotate(0 39.269018954918096 12.059746413934405)"><path d="M0 0 L78.53803790983623 0 L78.53803790983623 24.119492827868815 L0 24.119492827868815" stroke="none" stroke-width="0" fill="#000000"></path><path d="M0 0 C26.494833550541056 0, 52.98966710108211 0, 78.53803790983623 0 M0 0 C23.794163646894027 0, 47.588327293788055 0, 78.53803790983623 0 M78.53803790983623 0 C78.53803790983623 7.309620774937717, 78.53803790983623 14.619241549875435, 78.53803790983623 24.119492827868815 M78.53803790983623 0 C78.53803790983623 5.16682174792683, 78.53803790983623 10.33364349585366, 78.53803790983623 24.119492827868815 M78.53803790983623 24.119492827868815 C59.10540763117078 24.119492827868815, 39.67277735250533 24.119492827868815, 0 24.119492827868815 M78.53803790983623 24.119492827868815 C49.244955260249505 24.119492827868815, 19.951872610662775 24.119492827868815, 0 24.119492827868815 M0 24.119492827868815 C0 17.531803300120583, 0 10.944113772372352, 0 0 M0 24.119492827868815 C0 18.076121742275838, 0 12.032750656682865, 0 0" stroke="#000000" stroke-width="1" fill="none"></path></g><g transform="translate(67.78951913685387 31.308775800470357) rotate(0 4.466138451148112 4.154700105048306)"><path d="M4.466138451148101 0 C5.375218296669934 -0.05304474880496812, 6.603868948571301 0.39980784290787286, 7.336916910690732 0.9720151767502165 C8.069964872810163 1.5442225105925602, 8.698257741203001 2.556571506250356, 8.864426223864687 3.433244003054062 C9.030594706526372 4.309916499857769, 8.81239088325128 5.461117302191361, 8.333927806660842 6.232050157572456 C7.855464730070404 7.002983012953551, 6.8928642091031715 7.754375972379271, 5.993647764322056 8.058841135340634 C5.09443131954094 8.363306298301996, 3.8378455827552633 8.363306298301996, 2.9386291379741474 8.058841135340634 C2.0394126931930314 7.754375972379271, 1.0768121722257975 7.002983012953551, 0.598349095635359 6.232050157572456 C0.11988601904492047 5.461117302191361, -0.09831780423016881 4.309916499857768, 0.06785067843151626 3.4332440030540616 C0.23401916109320134 2.5565715062503553, 0.8623120294860388 1.5442225105925607, 1.5953599916054695 0.972015176750217 C2.3284079537249003 0.3998078429078734, 3.9876753745576616 0.14815352910820842, 4.4661384511481 0 C4.944601527738539 -0.14815352910820842, 4.466138451148101 0.013849000350161456, 4.466138451148101 0.08309400210096651 M4.466138451148101 0 C5.375218296669934 -0.05304474880496812, 6.603868948571301 0.39980784290787286, 7.336916910690732 0.9720151767502165 C8.069964872810163 1.5442225105925602, 8.698257741203001 2.556571506250356, 8.864426223864687 3.433244003054062 C9.030594706526372 4.309916499857769, 8.81239088325128 5.461117302191361, 8.333927806660842 6.232050157572456 C7.855464730070404 7.002983012953551, 6.8928642091031715 7.754375972379271, 5.993647764322056 8.058841135340634 C5.09443131954094 8.363306298301996, 3.8378455827552633 8.363306298301996, 2.9386291379741474 8.058841135340634 C2.0394126931930314 7.754375972379271, 1.0768121722257975 7.002983012953551, 0.598349095635359 6.232050157572456 C0.11988601904492047 5.461117302191361, -0.09831780423016881 4.309916499857768, 0.06785067843151626 3.4332440030540616 C0.23401916109320134 2.5565715062503553, 0.8623120294860388 1.5442225105925607, 1.5953599916054695 0.972015176750217 C2.3284079537249003 0.3998078429078734, 3.9876753745576616 0.14815352910820842, 4.4661384511481 0 C4.944601527738539 -0.14815352910820842, 4.466138451148101 0.013849000350161456, 4.466138451148101 0.08309400210096651" stroke="none" stroke-width="0" fill="#fa5252"></path><path d="M4.466138451148101 0 C5.375218296669934 -0.05304474880496812, 6.603868948571301 0.39980784290787286, 7.336916910690732 0.9720151767502165 C8.069964872810163 1.5442225105925602, 8.698257741203001 2.556571506250356, 8.864426223864687 3.433244003054062 C9.030594706526372 4.309916499857769, 8.81239088325128 5.461117302191361, 8.333927806660842 6.232050157572456 C7.855464730070404 7.002983012953551, 6.8928642091031715 7.754375972379271, 5.993647764322056 8.058841135340634 C5.09443131954094 8.363306298301996, 3.8378455827552633 8.363306298301996, 2.9386291379741474 8.058841135340634 C2.0394126931930314 7.754375972379271, 1.0768121722257975 7.002983012953551, 0.598349095635359 6.232050157572456 C0.11988601904492047 5.461117302191361, -0.09831780423016881 4.309916499857768, 0.06785067843151626 3.4332440030540616 C0.23401916109320134 2.5565715062503553, 0.8623120294860388 1.5442225105925607, 1.5953599916054695 0.972015176750217 C2.3284079537249003 0.3998078429078734, 3.9876753745576616 0.14815352910820842, 4.4661384511481 0 C4.944601527738539 -0.14815352910820842, 4.466138451148101 0.013849000350161456, 4.466138451148101 0.08309400210096651 M4.466138451148101 0 C5.375218296669934 -0.05304474880496812, 6.603868948571301 0.39980784290787286, 7.336916910690732 0.9720151767502165 C8.069964872810163 1.5442225105925602, 8.698257741203001 2.556571506250356, 8.864426223864687 3.433244003054062 C9.030594706526372 4.309916499857769, 8.81239088325128 5.461117302191361, 8.333927806660842 6.232050157572456 C7.855464730070404 7.002983012953551, 6.8928642091031715 7.754375972379271, 5.993647764322056 8.058841135340634 C5.09443131954094 8.363306298301996, 3.8378455827552633 8.363306298301996, 2.9386291379741474 8.058841135340634 C2.0394126931930314 7.754375972379271, 1.0768121722257975 7.002983012953551, 0.598349095635359 6.232050157572456 C0.11988601904492047 5.461117302191361, -0.09831780423016881 4.309916499857768, 0.06785067843151626 3.4332440030540616 C0.23401916109320134 2.5565715062503553, 0.8623120294860388 1.5442225105925607, 1.5953599916054695 0.972015176750217 C2.3284079537249003 0.3998078429078734, 3.9876753745576616 0.14815352910820842, 4.4661384511481 0 C4.944601527738539 -0.14815352910820842, 4.466138451148101 0.013849000350161456, 4.466138451148101 0.08309400210096651" stroke="#fa5252" stroke-width="1" fill="none"></path></g><g transform="translate(85.50886034258838 31.456052367752477) rotate(0 4.466138451148112 4.154700105048306)"><path d="M4.466138451148101 0 C5.375218296669934 -0.05304474880496812, 6.603868948571301 0.39980784290787286, 7.336916910690732 0.9720151767502165 C8.069964872810163 1.5442225105925602, 8.698257741203001 2.556571506250356, 8.864426223864687 3.433244003054062 C9.030594706526372 4.309916499857769, 8.81239088325128 5.461117302191361, 8.333927806660842 6.232050157572456 C7.855464730070404 7.002983012953551, 6.8928642091031715 7.754375972379271, 5.993647764322056 8.058841135340634 C5.09443131954094 8.363306298301996, 3.8378455827552633 8.363306298301996, 2.9386291379741474 8.058841135340634 C2.0394126931930314 7.754375972379271, 1.0768121722257975 7.002983012953551, 0.598349095635359 6.232050157572456 C0.11988601904492047 5.461117302191361, -0.09831780423016881 4.309916499857768, 0.06785067843151626 3.4332440030540616 C0.23401916109320134 2.5565715062503553, 0.8623120294860388 1.5442225105925607, 1.5953599916054695 0.972015176750217 C2.3284079537249003 0.3998078429078734, 3.9876753745576616 0.14815352910820842, 4.4661384511481 0 C4.944601527738539 -0.14815352910820842, 4.466138451148101 0.013849000350161456, 4.466138451148101 0.08309400210096651 M4.466138451148101 0 C5.375218296669934 -0.05304474880496812, 6.603868948571301 0.39980784290787286, 7.336916910690732 0.9720151767502165 C8.069964872810163 1.5442225105925602, 8.698257741203001 2.556571506250356, 8.864426223864687 3.433244003054062 C9.030594706526372 4.309916499857769, 8.81239088325128 5.461117302191361, 8.333927806660842 6.232050157572456 C7.855464730070404 7.002983012953551, 6.8928642091031715 7.754375972379271, 5.993647764322056 8.058841135340634 C5.09443131954094 8.363306298301996, 3.8378455827552633 8.363306298301996, 2.9386291379741474 8.058841135340634 C2.0394126931930314 7.754375972379271, 1.0768121722257975 7.002983012953551, 0.598349095635359 6.232050157572456 C0.11988601904492047 5.461117302191361, -0.09831780423016881 4.309916499857768, 0.06785067843151626 3.4332440030540616 C0.23401916109320134 2.5565715062503553, 0.8623120294860388 1.5442225105925607, 1.5953599916054695 0.972015176750217 C2.3284079537249003 0.3998078429078734, 3.9876753745576616 0.14815352910820842, 4.4661384511481 0 C4.944601527738539 -0.14815352910820842, 4.466138451148101 0.013849000350161456, 4.466138451148101 0.08309400210096651" stroke="none" stroke-width="0" fill="#fab005"></path><path d="M4.466138451148101 0 C5.375218296669934 -0.05304474880496812, 6.603868948571301 0.39980784290787286, 7.336916910690732 0.9720151767502165 C8.069964872810163 1.5442225105925602, 8.698257741203001 2.556571506250356, 8.864426223864687 3.433244003054062 C9.030594706526372 4.309916499857769, 8.81239088325128 5.461117302191361, 8.333927806660842 6.232050157572456 C7.855464730070404 7.002983012953551, 6.8928642091031715 7.754375972379271, 5.993647764322056 8.058841135340634 C5.09443131954094 8.363306298301996, 3.8378455827552633 8.363306298301996, 2.9386291379741474 8.058841135340634 C2.0394126931930314 7.754375972379271, 1.0768121722257975 7.002983012953551, 0.598349095635359 6.232050157572456 C0.11988601904492047 5.461117302191361, -0.09831780423016881 4.309916499857768, 0.06785067843151626 3.4332440030540616 C0.23401916109320134 2.5565715062503553, 0.8623120294860388 1.5442225105925607, 1.5953599916054695 0.972015176750217 C2.3284079537249003 0.3998078429078734, 3.9876753745576616 0.14815352910820842, 4.4661384511481 0 C4.944601527738539 -0.14815352910820842, 4.466138451148101 0.013849000350161456, 4.466138451148101 0.08309400210096651 M4.466138451148101 0 C5.375218296669934 -0.05304474880496812, 6.603868948571301 0.39980784290787286, 7.336916910690732 0.9720151767502165 C8.069964872810163 1.5442225105925602, 8.698257741203001 2.556571506250356, 8.864426223864687 3.433244003054062 C9.030594706526372 4.309916499857769, 8.81239088325128 5.461117302191361, 8.333927806660842 6.232050157572456 C7.855464730070404 7.002983012953551, 6.8928642091031715 7.754375972379271, 5.993647764322056 8.058841135340634 C5.09443131954094 8.363306298301996, 3.8378455827552633 8.363306298301996, 2.9386291379741474 8.058841135340634 C2.0394126931930314 7.754375972379271, 1.0768121722257975 7.002983012953551, 0.598349095635359 6.232050157572456 C0.11988601904492047 5.461117302191361, -0.09831780423016881 4.309916499857768, 0.06785067843151626 3.4332440030540616 C0.23401916109320134 2.5565715062503553, 0.8623120294860388 1.5442225105925607, 1.5953599916054695 0.972015176750217 C2.3284079537249003 0.3998078429078734, 3.9876753745576616 0.14815352910820842, 4.4661384511481 0 C4.944601527738539 -0.14815352910820842, 4.466138451148101 0.013849000350161456, 4.466138451148101 0.08309400210096651" stroke="#fab005" stroke-width="1" fill="none"></path></g><g transform="translate(104.48328291039479 31.838783829224667) rotate(0 4.466138451148112 4.154700105048306)"><path d="M4.466138451148101 0 C5.375218296669934 -0.05304474880496812, 6.603868948571301 0.39980784290787286, 7.336916910690732 0.9720151767502165 C8.069964872810163 1.5442225105925602, 8.698257741203001 2.556571506250356, 8.864426223864687 3.433244003054062 C9.030594706526372 4.309916499857769, 8.81239088325128 5.461117302191361, 8.333927806660842 6.232050157572456 C7.855464730070404 7.002983012953551, 6.8928642091031715 7.754375972379271, 5.993647764322056 8.058841135340634 C5.09443131954094 8.363306298301996, 3.8378455827552633 8.363306298301996, 2.9386291379741474 8.058841135340634 C2.0394126931930314 7.754375972379271, 1.0768121722257975 7.002983012953551, 0.598349095635359 6.232050157572456 C0.11988601904492047 5.461117302191361, -0.09831780423016881 4.309916499857768, 0.06785067843151626 3.4332440030540616 C0.23401916109320134 2.5565715062503553, 0.8623120294860388 1.5442225105925607, 1.5953599916054695 0.972015176750217 C2.3284079537249003 0.3998078429078734, 3.9876753745576616 0.14815352910820842, 4.4661384511481 0 C4.944601527738539 -0.14815352910820842, 4.466138451148101 0.013849000350161456, 4.466138451148101 0.08309400210096651 M4.466138451148101 0 C5.375218296669934 -0.05304474880496812, 6.603868948571301 0.39980784290787286, 7.336916910690732 0.9720151767502165 C8.069964872810163 1.5442225105925602, 8.698257741203001 2.556571506250356, 8.864426223864687 3.433244003054062 C9.030594706526372 4.309916499857769, 8.81239088325128 5.461117302191361, 8.333927806660842 6.232050157572456 C7.855464730070404 7.002983012953551, 6.8928642091031715 7.754375972379271, 5.993647764322056 8.058841135340634 C5.09443131954094 8.363306298301996, 3.8378455827552633 8.363306298301996, 2.9386291379741474 8.058841135340634 C2.0394126931930314 7.754375972379271, 1.0768121722257975 7.002983012953551, 0.598349095635359 6.232050157572456 C0.11988601904492047 5.461117302191361, -0.09831780423016881 4.309916499857768, 0.06785067843151626 3.4332440030540616 C0.23401916109320134 2.5565715062503553, 0.8623120294860388 1.5442225105925607, 1.5953599916054695 0.972015176750217 C2.3284079537249003 0.3998078429078734, 3.9876753745576616 0.14815352910820842, 4.4661384511481 0 C4.944601527738539 -0.14815352910820842, 4.466138451148101 0.013849000350161456, 4.466138451148101 0.08309400210096651" stroke="none" stroke-width="0" fill="#40c057"></path><path d="M4.466138451148101 0 C5.375218296669934 -0.05304474880496812, 6.603868948571301 0.39980784290787286, 7.336916910690732 0.9720151767502165 C8.069964872810163 1.5442225105925602, 8.698257741203001 2.556571506250356, 8.864426223864687 3.433244003054062 C9.030594706526372 4.309916499857769, 8.81239088325128 5.461117302191361, 8.333927806660842 6.232050157572456 C7.855464730070404 7.002983012953551, 6.8928642091031715 7.754375972379271, 5.993647764322056 8.058841135340634 C5.09443131954094 8.363306298301996, 3.8378455827552633 8.363306298301996, 2.9386291379741474 8.058841135340634 C2.0394126931930314 7.754375972379271, 1.0768121722257975 7.002983012953551, 0.598349095635359 6.232050157572456 C0.11988601904492047 5.461117302191361, -0.09831780423016881 4.309916499857768, 0.06785067843151626 3.4332440030540616 C0.23401916109320134 2.5565715062503553, 0.8623120294860388 1.5442225105925607, 1.5953599916054695 0.972015176750217 C2.3284079537249003 0.3998078429078734, 3.9876753745576616 0.14815352910820842, 4.4661384511481 0 C4.944601527738539 -0.14815352910820842, 4.466138451148101 0.013849000350161456, 4.466138451148101 0.08309400210096651 M4.466138451148101 0 C5.375218296669934 -0.05304474880496812, 6.603868948571301 0.39980784290787286, 7.336916910690732 0.9720151767502165 C8.069964872810163 1.5442225105925602, 8.698257741203001 2.556571506250356, 8.864426223864687 3.433244003054062 C9.030594706526372 4.309916499857769, 8.81239088325128 5.461117302191361, 8.333927806660842 6.232050157572456 C7.855464730070404 7.002983012953551, 6.8928642091031715 7.754375972379271, 5.993647764322056 8.058841135340634 C5.09443131954094 8.363306298301996, 3.8378455827552633 8.363306298301996, 2.9386291379741474 8.058841135340634 C2.0394126931930314 7.754375972379271, 1.0768121722257975 7.002983012953551, 0.598349095635359 6.232050157572456 C0.11988601904492047 5.461117302191361, -0.09831780423016881 4.309916499857768, 0.06785067843151626 3.4332440030540616 C0.23401916109320134 2.5565715062503553, 0.8623120294860388 1.5442225105925607, 1.5953599916054695 0.972015176750217 C2.3284079537249003 0.3998078429078734, 3.9876753745576616 0.14815352910820842, 4.4661384511481 0 C4.944601527738539 -0.14815352910820842, 4.466138451148101 0.013849000350161456, 4.466138451148101 0.08309400210096651" stroke="#40c057" stroke-width="1" fill="none"></path></g><g transform="translate(85.54304057804848 185.71129444596153) rotate(0 30.17488532110093 4.953987441720557)"><path d="M0 0 L60.34977064220187 0 L60.34977064220187 9.907974883441113 L0 9.907974883441113" stroke="none" stroke-width="0" fill="#868e96"></path><path d="M0 0 C23.84476025583205 0, 47.6895205116641 0, 60.34977064220187 0 M0 0 C16.970062450681496 0, 33.94012490136299 0, 60.34977064220187 0 M60.34977064220187 0 C60.34977064220187 2.2037207430513814, 60.34977064220187 4.407441486102763, 60.34977064220187 9.907974883441113 M60.34977064220187 0 C60.34977064220187 2.9546721530151734, 60.34977064220187 5.909344306030347, 60.34977064220187 9.907974883441113 M60.34977064220187 9.907974883441113 C42.26043063853795 9.907974883441113, 24.171090634874027 9.907974883441113, 0 9.907974883441113 M60.34977064220187 9.907974883441113 C45.95444475068583 9.907974883441113, 31.55911885916979 9.907974883441113, 0 9.907974883441113 M0 9.907974883441113 C0 6.865438848793927, 0 3.8229028141467394, 0 0 M0 9.907974883441113 C0 6.899441588882137, 0 3.890908294323162, 0 0" stroke="#868e96" stroke-width="1" fill="none"></path></g><g transform="translate(227.906642012475 184.08475756071556) rotate(0 44.52555130470748 5.035634470409093)"><path d="M0 0 L89.051102609415 0 L89.051102609415 10.071268940818188 L0 10.071268940818188" stroke="none" stroke-width="0" fill="#868e96"></path><path d="M0 0 C31.854930556734356 0, 63.70986111346871 0, 89.051102609415 0 M0 0 C30.603672433241535 0, 61.20734486648307 0, 89.051102609415 0 M89.051102609415 0 C89.051102609415 2.134483615720676, 89.051102609415 4.268967231441352, 89.051102609415 10.071268940818188 M89.051102609415 0 C89.051102609415 3.3403712504019514, 89.051102609415 6.680742500803903, 89.051102609415 10.071268940818188 M89.051102609415 10.071268940818188 C55.73067580499046 10.071268940818188, 22.410249000565926 10.071268940818188, 0 10.071268940818188 M89.051102609415 10.071268940818188 C54.63948749220696 10.071268940818188, 20.227872374998924 10.071268940818188, 0 10.071268940818188 M0 10.071268940818188 C0 7.105835655157966, 0 4.140402369497745, 0 0 M0 10.071268940818188 C0 7.248239154731081, 0 4.425209368643975, 0 0" stroke="#868e96" stroke-width="1" fill="none"></path></g><g transform="translate(152.3307262850151 185.24382518366627) rotate(0 33.80355143278126 4.705844511392684)"><path d="M0 0 L67.60710286556251 0 L67.60710286556251 9.41168902278537 L0 9.41168902278537" stroke="none" stroke-width="0" fill="#868e96"></path><path d="M0 0 C18.193447670584373 0, 36.386895341168746 0, 67.60710286556251 0 M0 0 C14.379946063631085 0, 28.75989212726217 0, 67.60710286556251 0 M67.60710286556251 0 C67.60710286556251 2.395235746254352, 67.60710286556251 4.790471492508704, 67.60710286556251 9.41168902278537 M67.60710286556251 0 C67.60710286556251 1.910963550879591, 67.60710286556251 3.821927101759182, 67.60710286556251 9.41168902278537 M67.60710286556251 9.41168902278537 C50.344838061723394 9.41168902278537, 33.082573257884285 9.41168902278537, 0 9.41168902278537 M67.60710286556251 9.41168902278537 C44.325213233161676 9.41168902278537, 21.043323600760843 9.41168902278537, 0 9.41168902278537 M0 9.41168902278537 C0 6.14190825552812, 0 2.8721274882708707, 0 0 M0 9.41168902278537 C0 7.380508666525305, 0 5.349328310265242, 0 0" stroke="#868e96" stroke-width="1" fill="none"></path></g><g transform="translate(205.58147775663207 274.31091829037865) rotate(0 99 10)"><text x="99" y="14" font-family="Virgil" font-size="16px" fill="#adb5bd" text-anchor="middle" style="white-space: pre;" direction="ltr">Fabriqu avec Excalidraw</text></g></svg>