<svg version="1.1" xmlns="http://www.w3.org/2000/svg" viewBox="0 0 1061.8847004128816 719.7979146029904">
  <!-- svg-source:excalidraw -->
  <defs>
    <style>
      @font-face {
        font-family: "Virgil";
        src: url("https://excalidraw.com/FG_Virgil.woff2");
      }
      @font-face {
        font-family: "Cascadia";
        src: url("https://excalidraw.com/Cascadia.woff2");
      }
    </style>
  </defs>
  <g transform="translate(98.26454673150783 10) rotate(0 52.106199951687415 43.192617026830376)"><path d="M52.10619995168741 0 C61.00141452879511 -0.6063130956228721, 72.31008375062338 2.6295813626399065, 80.19635124781699 6.813831289457973 C88.0826187450106 10.998081216276038, 95.50284265702113 18.05716852485305, 99.4238049348491 25.1054995609084 C103.34476721267707 32.15383059696374, 105.00356703171408 41.415217755198995, 103.72212491478481 49.10381750579006 C102.44068279785554 56.79241725638113, 97.81469212994111 65.3340525829251, 91.73515223327344 71.23709806445478 C85.65561233660577 77.14014354598447, 76.20437321125829 82.26706359303353, 67.24488553477885 84.52209039496819 C58.2853978582994 86.77711719690285, 46.99086197510859 86.87173217065346, 37.97822617439677 84.7672588760628 C28.965590373684947 82.66278558147214, 19.39128628443945 77.6952435992198, 13.169070730507933 71.89525062742422 C6.946855176576418 66.09525765562864, 2.1135626936021277 57.63286328562127, 0.6449328508076775 49.967301045289375 C-0.8236969919867729 42.30173880495748, 0.6089697644269152 33.01445425422092, 4.35729167374123 25.90187718543285 C8.105613583055545 18.789300116644775, 15.35222021794868 11.607347928841932, 23.134864306693565 7.291838632560925 C30.91750839543845 2.9763293362799166, 46.22460026537824 1.2241278465069552, 51.053156206210545 0.008821407746800958 C55.88171214704285 -1.2064850310133532, 51.93069266077459 -0.1425051554649682, 52.1061999516874 0 C52.28170724260021 0.1425051554649682, 52.10619995168741 0.14397539008943738, 52.10619995168741 0.8638523405366101 M52.10619995168741 0 C61.00141452879511 -0.6063130956228721, 72.31008375062338 2.6295813626399065, 80.19635124781699 6.813831289457973 C88.0826187450106 10.998081216276038, 95.50284265702113 18.05716852485305, 99.4238049348491 25.1054995609084 C103.34476721267707 32.15383059696374, 105.00356703171408 41.415217755198995, 103.72212491478481 49.10381750579006 C102.44068279785554 56.79241725638113, 97.81469212994111 65.3340525829251, 91.73515223327344 71.23709806445478 C85.65561233660577 77.14014354598447, 76.20437321125829 82.26706359303353, 67.24488553477885 84.52209039496819 C58.2853978582994 86.77711719690285, 46.99086197510859 86.87173217065346, 37.97822617439677 84.7672588760628 C28.965590373684947 82.66278558147214, 19.39128628443945 77.6952435992198, 13.169070730507933 71.89525062742422 C6.946855176576418 66.09525765562864, 2.1135626936021277 57.63286328562127, 0.6449328508076775 49.967301045289375 C-0.8236969919867729 42.30173880495748, 0.6089697644269152 33.01445425422092, 4.35729167374123 25.90187718543285 C8.105613583055545 18.789300116644775, 15.35222021794868 11.607347928841932, 23.134864306693565 7.291838632560925 C30.91750839543845 2.9763293362799166, 46.22460026537824 1.2241278465069552, 51.053156206210545 0.008821407746800958 C55.88171214704285 -1.2064850310133532, 51.93069266077459 -0.1425051554649682, 52.1061999516874 0 C52.28170724260021 0.1425051554649682, 52.10619995168741 0.14397539008943738, 52.10619995168741 0.8638523405366101" stroke="none" stroke-width="0" fill="#000000"></path><path d="M52.10619995168741 0 C61.00141452879511 -0.6063130956228721, 72.31008375062338 2.6295813626399065, 80.19635124781699 6.813831289457973 C88.0826187450106 10.998081216276038, 95.50284265702113 18.05716852485305, 99.4238049348491 25.1054995609084 C103.34476721267707 32.15383059696374, 105.00356703171408 41.415217755198995, 103.72212491478481 49.10381750579006 C102.44068279785554 56.79241725638113, 97.81469212994111 65.3340525829251, 91.73515223327344 71.23709806445478 C85.65561233660577 77.14014354598447, 76.20437321125829 82.26706359303353, 67.24488553477885 84.52209039496819 C58.2853978582994 86.77711719690285, 46.99086197510859 86.87173217065346, 37.97822617439677 84.7672588760628 C28.965590373684947 82.66278558147214, 19.39128628443945 77.6952435992198, 13.169070730507933 71.89525062742422 C6.946855176576418 66.09525765562864, 2.1135626936021277 57.63286328562127, 0.6449328508076775 49.967301045289375 C-0.8236969919867729 42.30173880495748, 0.6089697644269152 33.01445425422092, 4.35729167374123 25.90187718543285 C8.105613583055545 18.789300116644775, 15.35222021794868 11.607347928841932, 23.134864306693565 7.291838632560925 C30.91750839543845 2.9763293362799166, 46.22460026537824 1.2241278465069552, 51.053156206210545 0.008821407746800958 C55.88171214704285 -1.2064850310133532, 51.93069266077459 -0.1425051554649682, 52.1061999516874 0 C52.28170724260021 0.1425051554649682, 52.10619995168741 0.14397539008943738, 52.10619995168741 0.8638523405366101 M52.10619995168741 0 C61.00141452879511 -0.6063130956228721, 72.31008375062338 2.6295813626399065, 80.19635124781699 6.813831289457973 C88.0826187450106 10.998081216276038, 95.50284265702113 18.05716852485305, 99.4238049348491 25.1054995609084 C103.34476721267707 32.15383059696374, 105.00356703171408 41.415217755198995, 103.72212491478481 49.10381750579006 C102.44068279785554 56.79241725638113, 97.81469212994111 65.3340525829251, 91.73515223327344 71.23709806445478 C85.65561233660577 77.14014354598447, 76.20437321125829 82.26706359303353, 67.24488553477885 84.52209039496819 C58.2853978582994 86.77711719690285, 46.99086197510859 86.87173217065346, 37.97822617439677 84.7672588760628 C28.965590373684947 82.66278558147214, 19.39128628443945 77.6952435992198, 13.169070730507933 71.89525062742422 C6.946855176576418 66.09525765562864, 2.1135626936021277 57.63286328562127, 0.6449328508076775 49.967301045289375 C-0.8236969919867729 42.30173880495748, 0.6089697644269152 33.01445425422092, 4.35729167374123 25.90187718543285 C8.105613583055545 18.789300116644775, 15.35222021794868 11.607347928841932, 23.134864306693565 7.291838632560925 C30.91750839543845 2.9763293362799166, 46.22460026537824 1.2241278465069552, 51.053156206210545 0.008821407746800958 C55.88171214704285 -1.2064850310133532, 51.93069266077459 -0.1425051554649682, 52.1061999516874 0 C52.28170724260021 0.1425051554649682, 52.10619995168741 0.14397539008943738, 52.10619995168741 0.8638523405366101" stroke="#000000" stroke-width="1" fill="none"></path></g><g transform="translate(840.1353155564149 11.050111557402317) rotate(0 52.10619995168736 43.88681004095128)"><path d="M52.10619995168741 0 C60.975507155579216 -0.6167913601172449, 72.2418764281696 2.6525580963424096, 80.11453849029311 6.879328433916491 C87.98720055241662 11.106098771490572, 95.40106606126346 18.232187519542887, 99.34217232442845 25.360622025444492 C103.28327858759343 32.489056531346094, 104.98717516322297 41.854624064438354, 103.76117606928297 49.64993546932612 C102.53517697534296 57.44524687421388, 97.9949275312801 66.11415748459939, 91.98617776078845 72.13249045477107 C85.9774279902968 78.15082342494276, 76.61641540939266 83.40534560297394, 67.70867744633311 85.75993329035622 C58.80093948327356 88.1145209777385, 47.55387148103419 88.30734502866903, 38.53974998243113 86.26001657906475 C29.525628483828072 84.21268812946047, 19.918497249423787 79.28336308977438, 13.62394845471475 73.47596259273058 C7.329399660005712 67.66856209568678, 2.3740719027067767 59.16244730564535, 0.772457214176903 51.41561359680195 C-0.8291574743529704 43.66877988795854, 0.4208295217732787 34.25256984108672, 4.01426032353551 26.994960339670172 C7.607691125297741 19.737350838253626, 14.671117909389011 12.363057834134406, 22.333042024750288 7.869956588302664 C29.994966140111565 3.3768553424709227, 45.02361202788031 1.348012296063505, 49.985805015703164 0.03635286467972776 C54.94799800352602 -1.2753065667040495, 51.75280079569003 -0.14023055602321696, 52.1061999516874 0 C52.459599107684774 0.14023055602321696, 52.10619995168741 0.14628936680317517, 52.10619995168741 0.8777362008190295 M52.10619995168741 0 C60.975507155579216 -0.6167913601172449, 72.2418764281696 2.6525580963424096, 80.11453849029311 6.879328433916491 C87.98720055241662 11.106098771490572, 95.40106606126346 18.232187519542887, 99.34217232442845 25.360622025444492 C103.28327858759343 32.489056531346094, 104.98717516322297 41.854624064438354, 103.76117606928297 49.64993546932612 C102.53517697534296 57.44524687421388, 97.9949275312801 66.11415748459939, 91.98617776078845 72.13249045477107 C85.9774279902968 78.15082342494276, 76.61641540939266 83.40534560297394, 67.70867744633311 85.75993329035622 C58.80093948327356 88.1145209777385, 47.55387148103419 88.30734502866903, 38.53974998243113 86.26001657906475 C29.525628483828072 84.21268812946047, 19.918497249423787 79.28336308977438, 13.62394845471475 73.47596259273058 C7.329399660005712 67.66856209568678, 2.3740719027067767 59.16244730564535, 0.772457214176903 51.41561359680195 C-0.8291574743529704 43.66877988795854, 0.4208295217732787 34.25256984108672, 4.01426032353551 26.994960339670172 C7.607691125297741 19.737350838253626, 14.671117909389011 12.363057834134406, 22.333042024750288 7.869956588302664 C29.994966140111565 3.3768553424709227, 45.02361202788031 1.348012296063505, 49.985805015703164 0.03635286467972776 C54.94799800352602 -1.2753065667040495, 51.75280079569003 -0.14023055602321696, 52.1061999516874 0 C52.459599107684774 0.14023055602321696, 52.10619995168741 0.14628936680317517, 52.10619995168741 0.8777362008190295" stroke="none" stroke-width="0" fill="#000000"></path><path d="M52.10619995168741 0 C60.975507155579216 -0.6167913601172449, 72.2418764281696 2.6525580963424096, 80.11453849029311 6.879328433916491 C87.98720055241662 11.106098771490572, 95.40106606126346 18.232187519542887, 99.34217232442845 25.360622025444492 C103.28327858759343 32.489056531346094, 104.98717516322297 41.854624064438354, 103.76117606928297 49.64993546932612 C102.53517697534296 57.44524687421388, 97.9949275312801 66.11415748459939, 91.98617776078845 72.13249045477107 C85.9774279902968 78.15082342494276, 76.61641540939266 83.40534560297394, 67.70867744633311 85.75993329035622 C58.80093948327356 88.1145209777385, 47.55387148103419 88.30734502866903, 38.53974998243113 86.26001657906475 C29.525628483828072 84.21268812946047, 19.918497249423787 79.28336308977438, 13.62394845471475 73.47596259273058 C7.329399660005712 67.66856209568678, 2.3740719027067767 59.16244730564535, 0.772457214176903 51.41561359680195 C-0.8291574743529704 43.66877988795854, 0.4208295217732787 34.25256984108672, 4.01426032353551 26.994960339670172 C7.607691125297741 19.737350838253626, 14.671117909389011 12.363057834134406, 22.333042024750288 7.869956588302664 C29.994966140111565 3.3768553424709227, 45.02361202788031 1.348012296063505, 49.985805015703164 0.03635286467972776 C54.94799800352602 -1.2753065667040495, 51.75280079569003 -0.14023055602321696, 52.1061999516874 0 C52.459599107684774 0.14023055602321696, 52.10619995168741 0.14628936680317517, 52.10619995168741 0.8777362008190295 M52.10619995168741 0 C60.975507155579216 -0.6167913601172449, 72.2418764281696 2.6525580963424096, 80.11453849029311 6.879328433916491 C87.98720055241662 11.106098771490572, 95.40106606126346 18.232187519542887, 99.34217232442845 25.360622025444492 C103.28327858759343 32.489056531346094, 104.98717516322297 41.854624064438354, 103.76117606928297 49.64993546932612 C102.53517697534296 57.44524687421388, 97.9949275312801 66.11415748459939, 91.98617776078845 72.13249045477107 C85.9774279902968 78.15082342494276, 76.61641540939266 83.40534560297394, 67.70867744633311 85.75993329035622 C58.80093948327356 88.1145209777385, 47.55387148103419 88.30734502866903, 38.53974998243113 86.26001657906475 C29.525628483828072 84.21268812946047, 19.918497249423787 79.28336308977438, 13.62394845471475 73.47596259273058 C7.329399660005712 67.66856209568678, 2.3740719027067767 59.16244730564535, 0.772457214176903 51.41561359680195 C-0.8291574743529704 43.66877988795854, 0.4208295217732787 34.25256984108672, 4.01426032353551 26.994960339670172 C7.607691125297741 19.737350838253626, 14.671117909389011 12.363057834134406, 22.333042024750288 7.869956588302664 C29.994966140111565 3.3768553424709227, 45.02361202788031 1.348012296063505, 49.985805015703164 0.03635286467972776 C54.94799800352602 -1.2753065667040495, 51.75280079569003 -0.14023055602321696, 52.1061999516874 0 C52.459599107684774 0.14023055602321696, 52.10619995168741 0.14628936680317517, 52.10619995168741 0.8777362008190295" stroke="#000000" stroke-width="1" fill="none"></path></g><g transform="translate(10 610.5936772006232) rotate(0 520.5745424807162 22.17006593285788)"><path d="M0 0 L1041.1490849614327 0 L1041.1490849614327 44.34013186571573 L0 44.34013186571573" stroke="none" stroke-width="0" fill="#000000"></path><path d="M0 0 C255.8533934406071 0, 511.7067868812142 0, 1041.1490849614327 0 M0 0 C407.73896849050254 0, 815.4779369810051 0, 1041.1490849614327 0 M1041.1490849614327 0 C1041.1490849614327 17.355538727397143, 1041.1490849614327 34.711077454794285, 1041.1490849614327 44.34013186571573 M1041.1490849614327 0 C1041.1490849614327 16.002419720854817, 1041.1490849614327 32.004839441709635, 1041.1490849614327 44.34013186571573 M1041.1490849614327 44.34013186571573 C776.9613746439941 44.34013186571573, 512.7736643265556 44.34013186571573, 0 44.34013186571573 M1041.1490849614327 44.34013186571573 C819.0809242628113 44.34013186571573, 597.01276356419 44.34013186571573, 0 44.34013186571573 M0 44.34013186571573 C0 33.68940208878668, 0 23.03867231185762, 0 0 M0 44.34013186571573 C0 33.48219299416051, 0 22.624254122605297, 0 0" stroke="#000000" stroke-width="1" fill="none"></path></g><g transform="translate(131.7361350132204 50.79550686686784) rotate(0 386.7580555276742 263.76243208328367)"><path d="M0 0 L773.5161110553482 0 L773.5161110553482 527.5248641665673 L0 527.5248641665673" stroke="none" stroke-width="0" fill="#4f4f4f"></path><path d="M0 0 C171.25160539118005 0, 342.5032107823601 0, 773.5161110553482 0 M0 0 C279.9661786944895 0, 559.932357388979 0, 773.5161110553482 0 M773.5161110553482 0 C773.5161110553482 169.5380521910299, 773.5161110553482 339.0761043820598, 773.5161110553482 527.5248641665673 M773.5161110553482 0 C773.5161110553482 141.21619649280174, 773.5161110553482 282.4323929856035, 773.5161110553482 527.5248641665673 M773.5161110553482 527.5248641665673 C576.1117956082751 527.5248641665673, 378.70748016120183 527.5248641665673, 0 527.5248641665673 M773.5161110553482 527.5248641665673 C516.6540221620842 527.5248641665673, 259.79193326882023 527.5248641665673, 0 527.5248641665673 M0 527.5248641665673 C0 381.9957639875312, 0 236.46666380849496, 0 0 M0 527.5248641665673 C0 335.0372848540426, 0 142.54970554151788, 0 0" stroke="#eeeeee" stroke-width="1" fill="none"></path></g><g transform="translate(505.30447593775637 16.616454854067484) rotate(0 11.167830114670096 13.26696855289044)"><path d="M11.16783011467005 0 C13.441035342521518 -0.16938479228293227, 16.513345325922447 1.2766837424950654, 18.34637293946416 3.1038810159144887 C20.179400553005873 4.931078289333912, 21.75048216931049 8.163755004946346, 22.16599579592033 10.96318364051654 C22.58150942253017 13.762612276086735, 22.035878503255546 17.438676602381697, 20.839454699123195 19.900452829335656 C19.643030894990844 22.362229056289614, 17.235994211277774 24.76160964008951, 14.98745297112622 25.733841002240283 C12.738911730974667 26.706072364391055, 9.596748498365432 26.706072364391055, 7.34820725821388 25.733841002240283 C5.099666018062328 24.76160964008951, 2.692629334349257 22.362229056289614, 1.4962055302169048 19.900452829335656 C0.299781726084553 17.438676602381697, -0.2458491931900701 13.762612276086735, 0.16966443341976856 10.96318364051654 C0.5851780600296073 8.163755004946346, 2.1562596763342237 4.931078289333914, 3.9892872898759366 3.1038810159144905 C5.82231490341765 1.2766837424950672, 9.971406310537695 0.4730902741427802, 11.167830114670048 0 C12.364253918802401 -0.4730902741427802, 11.16783011467005 0.044223228509635476, 11.16783011467005 0.26533937105780936 M11.16783011467005 0 C13.441035342521518 -0.16938479228293227, 16.513345325922447 1.2766837424950654, 18.34637293946416 3.1038810159144887 C20.179400553005873 4.931078289333912, 21.75048216931049 8.163755004946346, 22.16599579592033 10.96318364051654 C22.58150942253017 13.762612276086735, 22.035878503255546 17.438676602381697, 20.839454699123195 19.900452829335656 C19.643030894990844 22.362229056289614, 17.235994211277774 24.76160964008951, 14.98745297112622 25.733841002240283 C12.738911730974667 26.706072364391055, 9.596748498365432 26.706072364391055, 7.34820725821388 25.733841002240283 C5.099666018062328 24.76160964008951, 2.692629334349257 22.362229056289614, 1.4962055302169048 19.900452829335656 C0.299781726084553 17.438676602381697, -0.2458491931900701 13.762612276086735, 0.16966443341976856 10.96318364051654 C0.5851780600296073 8.163755004946346, 2.1562596763342237 4.931078289333914, 3.9892872898759366 3.1038810159144905 C5.82231490341765 1.2766837424950672, 9.971406310537695 0.4730902741427802, 11.167830114670048 0 C12.364253918802401 -0.4730902741427802, 11.16783011467005 0.044223228509635476, 11.16783011467005 0.26533937105780936" stroke="none" stroke-width="0" fill="#ced4da"></path><path d="M11.16783011467005 0 C13.441035342521518 -0.16938479228293227, 16.513345325922447 1.2766837424950654, 18.34637293946416 3.1038810159144887 C20.179400553005873 4.931078289333912, 21.75048216931049 8.163755004946346, 22.16599579592033 10.96318364051654 C22.58150942253017 13.762612276086735, 22.035878503255546 17.438676602381697, 20.839454699123195 19.900452829335656 C19.643030894990844 22.362229056289614, 17.235994211277774 24.76160964008951, 14.98745297112622 25.733841002240283 C12.738911730974667 26.706072364391055, 9.596748498365432 26.706072364391055, 7.34820725821388 25.733841002240283 C5.099666018062328 24.76160964008951, 2.692629334349257 22.362229056289614, 1.4962055302169048 19.900452829335656 C0.299781726084553 17.438676602381697, -0.2458491931900701 13.762612276086735, 0.16966443341976856 10.96318364051654 C0.5851780600296073 8.163755004946346, 2.1562596763342237 4.931078289333914, 3.9892872898759366 3.1038810159144905 C5.82231490341765 1.2766837424950672, 9.971406310537695 0.4730902741427802, 11.167830114670048 0 C12.364253918802401 -0.4730902741427802, 11.16783011467005 0.044223228509635476, 11.16783011467005 0.26533937105780936 M11.16783011467005 0 C13.441035342521518 -0.16938479228293227, 16.513345325922447 1.2766837424950654, 18.34637293946416 3.1038810159144887 C20.179400553005873 4.931078289333912, 21.75048216931049 8.163755004946346, 22.16599579592033 10.96318364051654 C22.58150942253017 13.762612276086735, 22.035878503255546 17.438676602381697, 20.839454699123195 19.900452829335656 C19.643030894990844 22.362229056289614, 17.235994211277774 24.76160964008951, 14.98745297112622 25.733841002240283 C12.738911730974667 26.706072364391055, 9.596748498365432 26.706072364391055, 7.34820725821388 25.733841002240283 C5.099666018062328 24.76160964008951, 2.692629334349257 22.362229056289614, 1.4962055302169048 19.900452829335656 C0.299781726084553 17.438676602381697, -0.2458491931900701 13.762612276086735, 0.16966443341976856 10.96318364051654 C0.5851780600296073 8.163755004946346, 2.1562596763342237 4.931078289333914, 3.9892872898759366 3.1038810159144905 C5.82231490341765 1.2766837424950672, 9.971406310537695 0.4730902741427802, 11.167830114670048 0 C12.364253918802401 -0.4730902741427802, 11.16783011467005 0.044223228509635476, 11.16783011467005 0.26533937105780936" stroke="#ced4da" stroke-width="1" fill="none"></path></g><g transform="translate(898.3246901287977 49.25039613611884) rotate(0 22.14442220379567 275.22543885249974)"><path d="M0 0 L44.288844407591384 0 L44.288844407591384 550.4508777049995 L0 550.4508777049995" stroke="none" stroke-width="0" fill="#000000"></path><path d="M0 0 C12.04324187104283 0, 24.08648374208566 0, 44.288844407591384 0 M0 0 C15.726003728524741 0, 31.452007457049483 0, 44.288844407591384 0 M44.288844407591384 0 C44.288844407591384 124.6905354560796, 44.288844407591384 249.3810709121592, 44.288844407591384 550.4508777049995 M44.288844407591384 0 C44.288844407591384 114.86707507522979, 44.288844407591384 229.73415015045958, 44.288844407591384 550.4508777049995 M44.288844407591384 550.4508777049995 C26.610899941266464 550.4508777049995, 8.932955474941544 550.4508777049995, 0 550.4508777049995 M44.288844407591384 550.4508777049995 C28.029971460281356 550.4508777049995, 11.771098512971328 550.4508777049995, 0 550.4508777049995 M0 550.4508777049995 C0 331.81861661653465, 0 113.1863555280699, 0 0 M0 550.4508777049995 C0 414.5620763606443, 0 278.67327501628915, 0 0" stroke="#000000" stroke-width="1" fill="none"></path></g><g transform="translate(97.91115444517766 54.376686142426394) rotate(0 20.84144592233099 270.3597243176906)"><path d="M0 0 L41.68289184466204 0 L41.68289184466204 540.7194486353812 L0 540.7194486353812" stroke="none" stroke-width="0" fill="#000000"></path><path d="M0 0 C12.113655597681296 0, 24.227311195362592 0, 41.68289184466204 0 M0 0 C16.102507974454483 0, 32.205015948908965 0, 41.68289184466204 0 M41.68289184466204 0 C41.68289184466204 120.91543121963394, 41.68289184466204 241.8308624392679, 41.68289184466204 540.7194486353812 M41.68289184466204 0 C41.68289184466204 161.69092251193956, 41.68289184466204 323.3818450238791, 41.68289184466204 540.7194486353812 M41.68289184466204 540.7194486353812 C27.82048119655694 540.7194486353812, 13.958070548451843 540.7194486353812, 0 540.7194486353812 M41.68289184466204 540.7194486353812 C25.281188436431023 540.7194486353812, 8.879485028200008 540.7194486353812, 0 540.7194486353812 M0 540.7194486353812 C0 339.9716975045177, 0 139.2239463736542, 0 0 M0 540.7194486353812 C0 423.8010960714484, 0 306.88274350751556, 0 0" stroke="#000000" stroke-width="1" fill="none"></path></g><g transform="translate(97.89498891187748 573.7826014499879) rotate(0 421.9112790512528 16.860321298119914)"><path d="M0 0 L843.8225581025056 0 L843.8225581025056 33.72064259623985 L0 33.72064259623985" stroke="none" stroke-width="0" fill="#000000"></path><path d="M0 0 C264.6697485942727 0, 529.3394971885454 0, 843.8225581025056 0 M0 0 C263.37071656679524 0, 526.7414331335905 0, 843.8225581025056 0 M843.8225581025056 0 C843.8225581025056 13.396359769511017, 843.8225581025056 26.792719539022034, 843.8225581025056 33.72064259623985 M843.8225581025056 0 C843.8225581025056 11.944671186053053, 843.8225581025056 23.889342372106107, 843.8225581025056 33.72064259623985 M843.8225581025056 33.72064259623985 C534.5389808890263 33.72064259623985, 225.2554036755472 33.72064259623985, 0 33.72064259623985 M843.8225581025056 33.72064259623985 C506.52922441068046 33.72064259623985, 169.23589071885533 33.72064259623985, 0 33.72064259623985 M0 33.72064259623985 C0 24.11865365482654, 0 14.516664713413235, 0 0 M0 33.72064259623985 C0 24.61335118542771, 0 15.506059774615569, 0 0" stroke="#000000" stroke-width="1" fill="none"></path></g><g transform="translate(139.99447738405433 12.314279358691778) rotate(0 378.7519977514548 17.67278021584451)"><path d="M0 0 L757.5039955029096 0 L757.5039955029096 35.34556043168902 L0 35.34556043168902" stroke="none" stroke-width="0" fill="#000000"></path><path d="M0 0 C206.77867614784836 0, 413.5573522956967 0, 757.5039955029096 0 M0 0 C208.35213161827215 0, 416.7042632365443 0, 757.5039955029096 0 M757.5039955029096 0 C757.5039955029096 13.086833690152506, 757.5039955029096 26.173667380305012, 757.5039955029096 35.34556043168902 M757.5039955029096 0 C757.5039955029096 8.872864176372362, 757.5039955029096 17.745728352744724, 757.5039955029096 35.34556043168902 M757.5039955029096 35.34556043168902 C571.1659924438546 35.34556043168902, 384.82798938479976 35.34556043168902, 0 35.34556043168902 M757.5039955029096 35.34556043168902 C544.9879301767526 35.34556043168902, 332.4718648505956 35.34556043168902, 0 35.34556043168902 M0 35.34556043168902 C0 23.325172862048873, 0 11.304785292408727, 0 0 M0 35.34556043168902 C0 25.324699999809425, 0 15.303839567929828, 0 0" stroke="#000000" stroke-width="1" fill="none"></path></g><g transform="translate(331.9973605422142 617.0201082058618) rotate(0 187.53662797700719 13.365445697982636)"><path d="M0 0 L375.07325595401437 0 L375.07325595401437 26.730891395965237 L0 26.730891395965237" stroke="none" stroke-width="0" fill="#868e96"></path><path d="M0 0 C88.997307594636 0, 177.994615189272 0, 375.07325595401437 0 M0 0 C77.54872496118516 0, 155.09744992237032 0, 375.07325595401437 0 M375.07325595401437 0 C375.07325595401437 6.327058756062025, 375.07325595401437 12.65411751212405, 375.07325595401437 26.730891395965237 M375.07325595401437 0 C375.07325595401437 9.850947296453326, 375.07325595401437 19.70189459290665, 375.07325595401437 26.730891395965237 M375.07325595401437 26.730891395965237 C227.2283291862283 26.730891395965237, 79.38340241844224 26.730891395965237, 0 26.730891395965237 M375.07325595401437 26.730891395965237 C246.75585935779776 26.730891395965237, 118.43846276158115 26.730891395965237, 0 26.730891395965237 M0 26.730891395965237 C0 21.38345246713212, 0 16.036013538299002, 0 0 M0 26.730891395965237 C0 17.624480737248152, 0 8.518070078531068, 0 0" stroke="#868e96" stroke-width="1" fill="none"></path></g><g transform="translate(33.30081356401354 655.2988958995734) rotate(0 495.66533330750553 18.633006550745336)"><path d="M0 0 L991.3306666150112 0 L991.3306666150112 37.2660131014907 L0 37.2660131014907" stroke="none" stroke-width="0" fill="#000000"></path><path d="M0 0 C285.63038269844117 0, 571.2607653968823 0, 991.3306666150112 0 M0 0 C385.1429904084717 0, 770.2859808169434 0, 991.3306666150112 0 M991.3306666150112 0 C991.3306666150112 10.354790843275179, 991.3306666150112 20.709581686550358, 991.3306666150112 37.2660131014907 M991.3306666150112 0 C991.3306666150112 11.689959633695901, 991.3306666150112 23.379919267391802, 991.3306666150112 37.2660131014907 M991.3306666150112 37.2660131014907 C644.8923284615585 37.2660131014907, 298.45399030810574 37.2660131014907, 0 37.2660131014907 M991.3306666150112 37.2660131014907 C616.560742372543 37.2660131014907, 241.79081813007485 37.2660131014907, 0 37.2660131014907 M0 37.2660131014907 C0 28.332439339367752, 0 19.398865577244802, 0 0 M0 37.2660131014907 C0 27.777260351320827, 0 18.288507601150958, 0 0" stroke="#000000" stroke-width="1" fill="none"></path></g><g transform="translate(10.778748497114748 622.0703006020292) rotate(0 39.59442755708886 35.7850900448567)"><path d="M39.59442755708887 0 C47.0939752455208 -0.47796709726240927, 56.95078124558197 2.8395186744719743, 63.27720973108445 7.107064209112064 C69.60363821658693 11.374609743752153, 75.30731100250178 18.765285886628522, 77.55299847010373 25.60527320784054 C79.79868593770568 32.44526052905256, 79.47839338897045 41.45145754809148, 76.75133453669615 48.146988136384174 C74.02427568442185 54.842518724676864, 67.8072406028631 61.886902014097586, 61.19064535645797 65.77845673759667 C54.57405011005284 69.67001146109575, 44.92972932585065 71.95449476269674, 37.05176305826534 71.49631647737868 C29.173796790680026 71.03813819206063, 19.932992852084553 67.65530618349558, 13.922847750946097 63.029387025688365 C7.912702649807641 58.403467867881155, 2.7459379365636236 50.69700889887194, 0.9908924514345969 43.74080153053542 C-0.7641530336944296 36.7845941621989, 0.1954023878292137 27.81557632836756, 3.392574840171939 21.29214281566924 C6.589747292514664 14.768709302970922, 14.140285046004795 8.148890923623718, 20.173927165490948 4.6002004543455115 C26.2075692849771 1.0515099850673049, 36.35767749182254 0.6474164422413958, 39.59442755708886 0 C42.831177622355185 -0.6474164422413958, 39.59442755708887 0.11928363348285842, 39.59442755708887 0.7157018008971363 M39.59442755708887 0 C47.0939752455208 -0.47796709726240927, 56.95078124558197 2.8395186744719743, 63.27720973108445 7.107064209112064 C69.60363821658693 11.374609743752153, 75.30731100250178 18.765285886628522, 77.55299847010373 25.60527320784054 C79.79868593770568 32.44526052905256, 79.47839338897045 41.45145754809148, 76.75133453669615 48.146988136384174 C74.02427568442185 54.842518724676864, 67.8072406028631 61.886902014097586, 61.19064535645797 65.77845673759667 C54.57405011005284 69.67001146109575, 44.92972932585065 71.95449476269674, 37.05176305826534 71.49631647737868 C29.173796790680026 71.03813819206063, 19.932992852084553 67.65530618349558, 13.922847750946097 63.029387025688365 C7.912702649807641 58.403467867881155, 2.7459379365636236 50.69700889887194, 0.9908924514345969 43.74080153053542 C-0.7641530336944296 36.7845941621989, 0.1954023878292137 27.81557632836756, 3.392574840171939 21.29214281566924 C6.589747292514664 14.768709302970922, 14.140285046004795 8.148890923623718, 20.173927165490948 4.6002004543455115 C26.2075692849771 1.0515099850673049, 36.35767749182254 0.6474164422413958, 39.59442755708886 0 C42.831177622355185 -0.6474164422413958, 39.59442755708887 0.11928363348285842, 39.59442755708887 0.7157018008971363" stroke="none" stroke-width="0" fill="#000000"></path><path d="M39.59442755708887 0 C47.0939752455208 -0.47796709726240927, 56.95078124558197 2.8395186744719743, 63.27720973108445 7.107064209112064 C69.60363821658693 11.374609743752153, 75.30731100250178 18.765285886628522, 77.55299847010373 25.60527320784054 C79.79868593770568 32.44526052905256, 79.47839338897045 41.45145754809148, 76.75133453669615 48.146988136384174 C74.02427568442185 54.842518724676864, 67.8072406028631 61.886902014097586, 61.19064535645797 65.77845673759667 C54.57405011005284 69.67001146109575, 44.92972932585065 71.95449476269674, 37.05176305826534 71.49631647737868 C29.173796790680026 71.03813819206063, 19.932992852084553 67.65530618349558, 13.922847750946097 63.029387025688365 C7.912702649807641 58.403467867881155, 2.7459379365636236 50.69700889887194, 0.9908924514345969 43.74080153053542 C-0.7641530336944296 36.7845941621989, 0.1954023878292137 27.81557632836756, 3.392574840171939 21.29214281566924 C6.589747292514664 14.768709302970922, 14.140285046004795 8.148890923623718, 20.173927165490948 4.6002004543455115 C26.2075692849771 1.0515099850673049, 36.35767749182254 0.6474164422413958, 39.59442755708886 0 C42.831177622355185 -0.6474164422413958, 39.59442755708887 0.11928363348285842, 39.59442755708887 0.7157018008971363 M39.59442755708887 0 C47.0939752455208 -0.47796709726240927, 56.95078124558197 2.8395186744719743, 63.27720973108445 7.107064209112064 C69.60363821658693 11.374609743752153, 75.30731100250178 18.765285886628522, 77.55299847010373 25.60527320784054 C79.79868593770568 32.44526052905256, 79.47839338897045 41.45145754809148, 76.75133453669615 48.146988136384174 C74.02427568442185 54.842518724676864, 67.8072406028631 61.886902014097586, 61.19064535645797 65.77845673759667 C54.57405011005284 69.67001146109575, 44.92972932585065 71.95449476269674, 37.05176305826534 71.49631647737868 C29.173796790680026 71.03813819206063, 19.932992852084553 67.65530618349558, 13.922847750946097 63.029387025688365 C7.912702649807641 58.403467867881155, 2.7459379365636236 50.69700889887194, 0.9908924514345969 43.74080153053542 C-0.7641530336944296 36.7845941621989, 0.1954023878292137 27.81557632836756, 3.392574840171939 21.29214281566924 C6.589747292514664 14.768709302970922, 14.140285046004795 8.148890923623718, 20.173927165490948 4.6002004543455115 C26.2075692849771 1.0515099850673049, 36.35767749182254 0.6474164422413958, 39.59442755708886 0 C42.831177622355185 -0.6474164422413958, 39.59442755708887 0.11928363348285842, 39.59442755708887 0.7157018008971363" stroke="#000000" stroke-width="1" fill="none"></path></g><g transform="translate(972.6958452987038 622.2277345132771) rotate(0 39.59442755708892 35.78509004485667)"><path d="M39.59442755708887 0 C47.0939752455208 -0.47796709726240927, 56.95078124558197 2.8395186744719743, 63.27720973108445 7.107064209112064 C69.60363821658693 11.374609743752153, 75.30731100250178 18.765285886628522, 77.55299847010373 25.60527320784054 C79.79868593770568 32.44526052905256, 79.47839338897045 41.45145754809148, 76.75133453669615 48.146988136384174 C74.02427568442185 54.842518724676864, 67.8072406028631 61.886902014097586, 61.19064535645797 65.77845673759667 C54.57405011005284 69.67001146109575, 44.92972932585065 71.95449476269674, 37.05176305826534 71.49631647737868 C29.173796790680026 71.03813819206063, 19.932992852084553 67.65530618349558, 13.922847750946097 63.029387025688365 C7.912702649807641 58.403467867881155, 2.7459379365636236 50.69700889887194, 0.9908924514345969 43.74080153053542 C-0.7641530336944296 36.7845941621989, 0.1954023878292137 27.81557632836756, 3.392574840171939 21.29214281566924 C6.589747292514664 14.768709302970922, 14.140285046004795 8.148890923623718, 20.173927165490948 4.6002004543455115 C26.2075692849771 1.0515099850673049, 36.35767749182254 0.6474164422413958, 39.59442755708886 0 C42.831177622355185 -0.6474164422413958, 39.59442755708887 0.11928363348285842, 39.59442755708887 0.7157018008971363 M39.59442755708887 0 C47.0939752455208 -0.47796709726240927, 56.95078124558197 2.8395186744719743, 63.27720973108445 7.107064209112064 C69.60363821658693 11.374609743752153, 75.30731100250178 18.765285886628522, 77.55299847010373 25.60527320784054 C79.79868593770568 32.44526052905256, 79.47839338897045 41.45145754809148, 76.75133453669615 48.146988136384174 C74.02427568442185 54.842518724676864, 67.8072406028631 61.886902014097586, 61.19064535645797 65.77845673759667 C54.57405011005284 69.67001146109575, 44.92972932585065 71.95449476269674, 37.05176305826534 71.49631647737868 C29.173796790680026 71.03813819206063, 19.932992852084553 67.65530618349558, 13.922847750946097 63.029387025688365 C7.912702649807641 58.403467867881155, 2.7459379365636236 50.69700889887194, 0.9908924514345969 43.74080153053542 C-0.7641530336944296 36.7845941621989, 0.1954023878292137 27.81557632836756, 3.392574840171939 21.29214281566924 C6.589747292514664 14.768709302970922, 14.140285046004795 8.148890923623718, 20.173927165490948 4.6002004543455115 C26.2075692849771 1.0515099850673049, 36.35767749182254 0.6474164422413958, 39.59442755708886 0 C42.831177622355185 -0.6474164422413958, 39.59442755708887 0.11928363348285842, 39.59442755708887 0.7157018008971363" stroke="none" stroke-width="0" fill="#000000"></path><path d="M39.59442755708887 0 C47.0939752455208 -0.47796709726240927, 56.95078124558197 2.8395186744719743, 63.27720973108445 7.107064209112064 C69.60363821658693 11.374609743752153, 75.30731100250178 18.765285886628522, 77.55299847010373 25.60527320784054 C79.79868593770568 32.44526052905256, 79.47839338897045 41.45145754809148, 76.75133453669615 48.146988136384174 C74.02427568442185 54.842518724676864, 67.8072406028631 61.886902014097586, 61.19064535645797 65.77845673759667 C54.57405011005284 69.67001146109575, 44.92972932585065 71.95449476269674, 37.05176305826534 71.49631647737868 C29.173796790680026 71.03813819206063, 19.932992852084553 67.65530618349558, 13.922847750946097 63.029387025688365 C7.912702649807641 58.403467867881155, 2.7459379365636236 50.69700889887194, 0.9908924514345969 43.74080153053542 C-0.7641530336944296 36.7845941621989, 0.1954023878292137 27.81557632836756, 3.392574840171939 21.29214281566924 C6.589747292514664 14.768709302970922, 14.140285046004795 8.148890923623718, 20.173927165490948 4.6002004543455115 C26.2075692849771 1.0515099850673049, 36.35767749182254 0.6474164422413958, 39.59442755708886 0 C42.831177622355185 -0.6474164422413958, 39.59442755708887 0.11928363348285842, 39.59442755708887 0.7157018008971363 M39.59442755708887 0 C47.0939752455208 -0.47796709726240927, 56.95078124558197 2.8395186744719743, 63.27720973108445 7.107064209112064 C69.60363821658693 11.374609743752153, 75.30731100250178 18.765285886628522, 77.55299847010373 25.60527320784054 C79.79868593770568 32.44526052905256, 79.47839338897045 41.45145754809148, 76.75133453669615 48.146988136384174 C74.02427568442185 54.842518724676864, 67.8072406028631 61.886902014097586, 61.19064535645797 65.77845673759667 C54.57405011005284 69.67001146109575, 44.92972932585065 71.95449476269674, 37.05176305826534 71.49631647737868 C29.173796790680026 71.03813819206063, 19.932992852084553 67.65530618349558, 13.922847750946097 63.029387025688365 C7.912702649807641 58.403467867881155, 2.7459379365636236 50.69700889887194, 0.9908924514345969 43.74080153053542 C-0.7641530336944296 36.7845941621989, 0.1954023878292137 27.81557632836756, 3.392574840171939 21.29214281566924 C6.589747292514664 14.768709302970922, 14.140285046004795 8.148890923623718, 20.173927165490948 4.6002004543455115 C26.2075692849771 1.0515099850673049, 36.35767749182254 0.6474164422413958, 39.59442755708886 0 C42.831177622355185 -0.6474164422413958, 39.59442755708887 0.11928363348285842, 39.59442755708887 0.7157018008971363" stroke="#000000" stroke-width="1" fill="none"></path></g><g transform="translate(144.16332870364067 51.306230491679145) rotate(0 376.1471985002161 25.987072807816)"><path d="M0 0 L752.2943970004322 0 L752.2943970004322 51.974145615632 L0 51.974145615632" stroke="none" stroke-width="0" fill="#ced4da"></path><path d="M0 0 C222.99462931278077 0, 445.98925862556155 0, 752.2943970004322 0 M0 0 C278.88509735152047 0, 557.7701947030409 0, 752.2943970004322 0 M752.2943970004322 0 C752.2943970004322 15.974932612791578, 752.2943970004322 31.949865225583157, 752.2943970004322 51.974145615632 M752.2943970004322 0 C752.2943970004322 18.169667522681987, 752.2943970004322 36.339335045363974, 752.2943970004322 51.974145615632 M752.2943970004322 51.974145615632 C600.524368585685 51.974145615632, 448.7543401709378 51.974145615632, 0 51.974145615632 M752.2943970004322 51.974145615632 C533.0788127590031 51.974145615632, 313.86322851757404 51.974145615632, 0 51.974145615632 M0 51.974145615632 C0 35.3571350227494, 0 18.740124429866796, 0 0 M0 51.974145615632 C0 40.28176638685218, 0 28.589387158072366, 0 0" stroke="#ced4da" stroke-width="1" fill="none"></path></g><g transform="translate(162.9798002083212 66.40836458459157) rotate(0 11.822714190463444 10.998277914211856)"><path d="M11.822714190463433 0 C14.229220685386888 -0.14041949466766943, 17.481691618889244 1.0583670679959274, 19.42220838495855 2.5731082341516807 C21.36272515102786 4.087849400307434, 23.025935347524438 6.76772889074017, 23.46581478687927 9.08844699693452 C23.905694226234104 11.40916510312887, 23.32806738683673 14.456611618881974, 22.06148502108754 16.497416871317782 C20.794902655338355 18.538222123753588, 18.246716797808293 20.52730157151077, 15.866320592384156 21.333278511549366 C13.485924386960018 22.139255451587964, 10.159503993966851 22.139255451587967, 7.779107788542713 21.33327851154937 C5.398711583118574 20.527301571510773, 2.850525725588511 18.53822212375359, 1.5839433598393242 16.497416871317782 C0.3173609940901376 14.456611618881974, -0.26026584530723823 11.409165103128869, 0.17961359404759314 9.088446996934518 C0.6194930334024245 6.767728890740168, 2.282703229899006 4.087849400307434, 4.2232199959683125 2.5731082341516807 C6.163736762037619 1.0583670679959276, 10.556131824714244 0.3921904459779073, 11.822714190463431 0 C13.089296556212618 -0.3921904459779073, 11.822714190463433 0.03666092638070584, 11.822714190463433 0.2199655582842368 M11.822714190463433 0 C14.229220685386888 -0.14041949466766943, 17.481691618889244 1.0583670679959274, 19.42220838495855 2.5731082341516807 C21.36272515102786 4.087849400307434, 23.025935347524438 6.76772889074017, 23.46581478687927 9.08844699693452 C23.905694226234104 11.40916510312887, 23.32806738683673 14.456611618881974, 22.06148502108754 16.497416871317782 C20.794902655338355 18.538222123753588, 18.246716797808293 20.52730157151077, 15.866320592384156 21.333278511549366 C13.485924386960018 22.139255451587964, 10.159503993966851 22.139255451587967, 7.779107788542713 21.33327851154937 C5.398711583118574 20.527301571510773, 2.850525725588511 18.53822212375359, 1.5839433598393242 16.497416871317782 C0.3173609940901376 14.456611618881974, -0.26026584530723823 11.409165103128869, 0.17961359404759314 9.088446996934518 C0.6194930334024245 6.767728890740168, 2.282703229899006 4.087849400307434, 4.2232199959683125 2.5731082341516807 C6.163736762037619 1.0583670679959276, 10.556131824714244 0.3921904459779073, 11.822714190463431 0 C13.089296556212618 -0.3921904459779073, 11.822714190463433 0.03666092638070584, 11.822714190463433 0.2199655582842368" stroke="none" stroke-width="0" fill="#fa5252"></path><path d="M11.822714190463433 0 C14.229220685386888 -0.14041949466766943, 17.481691618889244 1.0583670679959274, 19.42220838495855 2.5731082341516807 C21.36272515102786 4.087849400307434, 23.025935347524438 6.76772889074017, 23.46581478687927 9.08844699693452 C23.905694226234104 11.40916510312887, 23.32806738683673 14.456611618881974, 22.06148502108754 16.497416871317782 C20.794902655338355 18.538222123753588, 18.246716797808293 20.52730157151077, 15.866320592384156 21.333278511549366 C13.485924386960018 22.139255451587964, 10.159503993966851 22.139255451587967, 7.779107788542713 21.33327851154937 C5.398711583118574 20.527301571510773, 2.850525725588511 18.53822212375359, 1.5839433598393242 16.497416871317782 C0.3173609940901376 14.456611618881974, -0.26026584530723823 11.409165103128869, 0.17961359404759314 9.088446996934518 C0.6194930334024245 6.767728890740168, 2.282703229899006 4.087849400307434, 4.2232199959683125 2.5731082341516807 C6.163736762037619 1.0583670679959276, 10.556131824714244 0.3921904459779073, 11.822714190463431 0 C13.089296556212618 -0.3921904459779073, 11.822714190463433 0.03666092638070584, 11.822714190463433 0.2199655582842368 M11.822714190463433 0 C14.229220685386888 -0.14041949466766943, 17.481691618889244 1.0583670679959274, 19.42220838495855 2.5731082341516807 C21.36272515102786 4.087849400307434, 23.025935347524438 6.76772889074017, 23.46581478687927 9.08844699693452 C23.905694226234104 11.40916510312887, 23.32806738683673 14.456611618881974, 22.06148502108754 16.497416871317782 C20.794902655338355 18.538222123753588, 18.246716797808293 20.52730157151077, 15.866320592384156 21.333278511549366 C13.485924386960018 22.139255451587964, 10.159503993966851 22.139255451587967, 7.779107788542713 21.33327851154937 C5.398711583118574 20.527301571510773, 2.850525725588511 18.53822212375359, 1.5839433598393242 16.497416871317782 C0.3173609940901376 14.456611618881974, -0.26026584530723823 11.409165103128869, 0.17961359404759314 9.088446996934518 C0.6194930334024245 6.767728890740168, 2.282703229899006 4.087849400307434, 4.2232199959683125 2.5731082341516807 C6.163736762037619 1.0583670679959276, 10.556131824714244 0.3921904459779073, 11.822714190463431 0 C13.089296556212618 -0.3921904459779073, 11.822714190463433 0.03666092638070584, 11.822714190463433 0.2199655582842368" stroke="#fa5252" stroke-width="1" fill="none"></path></g><g transform="translate(209.88625172346747 66.79823354655369) rotate(0 11.822714190463444 10.998277914211856)"><path d="M11.822714190463433 0 C14.229220685386888 -0.14041949466766943, 17.481691618889244 1.0583670679959274, 19.42220838495855 2.5731082341516807 C21.36272515102786 4.087849400307434, 23.025935347524438 6.76772889074017, 23.46581478687927 9.08844699693452 C23.905694226234104 11.40916510312887, 23.32806738683673 14.456611618881974, 22.06148502108754 16.497416871317782 C20.794902655338355 18.538222123753588, 18.246716797808293 20.52730157151077, 15.866320592384156 21.333278511549366 C13.485924386960018 22.139255451587964, 10.159503993966851 22.139255451587967, 7.779107788542713 21.33327851154937 C5.398711583118574 20.527301571510773, 2.850525725588511 18.53822212375359, 1.5839433598393242 16.497416871317782 C0.3173609940901376 14.456611618881974, -0.26026584530723823 11.409165103128869, 0.17961359404759314 9.088446996934518 C0.6194930334024245 6.767728890740168, 2.282703229899006 4.087849400307434, 4.2232199959683125 2.5731082341516807 C6.163736762037619 1.0583670679959276, 10.556131824714244 0.3921904459779073, 11.822714190463431 0 C13.089296556212618 -0.3921904459779073, 11.822714190463433 0.03666092638070584, 11.822714190463433 0.2199655582842368 M11.822714190463433 0 C14.229220685386888 -0.14041949466766943, 17.481691618889244 1.0583670679959274, 19.42220838495855 2.5731082341516807 C21.36272515102786 4.087849400307434, 23.025935347524438 6.76772889074017, 23.46581478687927 9.08844699693452 C23.905694226234104 11.40916510312887, 23.32806738683673 14.456611618881974, 22.06148502108754 16.497416871317782 C20.794902655338355 18.538222123753588, 18.246716797808293 20.52730157151077, 15.866320592384156 21.333278511549366 C13.485924386960018 22.139255451587964, 10.159503993966851 22.139255451587967, 7.779107788542713 21.33327851154937 C5.398711583118574 20.527301571510773, 2.850525725588511 18.53822212375359, 1.5839433598393242 16.497416871317782 C0.3173609940901376 14.456611618881974, -0.26026584530723823 11.409165103128869, 0.17961359404759314 9.088446996934518 C0.6194930334024245 6.767728890740168, 2.282703229899006 4.087849400307434, 4.2232199959683125 2.5731082341516807 C6.163736762037619 1.0583670679959276, 10.556131824714244 0.3921904459779073, 11.822714190463431 0 C13.089296556212618 -0.3921904459779073, 11.822714190463433 0.03666092638070584, 11.822714190463433 0.2199655582842368" stroke="none" stroke-width="0" fill="#fab005"></path><path d="M11.822714190463433 0 C14.229220685386888 -0.14041949466766943, 17.481691618889244 1.0583670679959274, 19.42220838495855 2.5731082341516807 C21.36272515102786 4.087849400307434, 23.025935347524438 6.76772889074017, 23.46581478687927 9.08844699693452 C23.905694226234104 11.40916510312887, 23.32806738683673 14.456611618881974, 22.06148502108754 16.497416871317782 C20.794902655338355 18.538222123753588, 18.246716797808293 20.52730157151077, 15.866320592384156 21.333278511549366 C13.485924386960018 22.139255451587964, 10.159503993966851 22.139255451587967, 7.779107788542713 21.33327851154937 C5.398711583118574 20.527301571510773, 2.850525725588511 18.53822212375359, 1.5839433598393242 16.497416871317782 C0.3173609940901376 14.456611618881974, -0.26026584530723823 11.409165103128869, 0.17961359404759314 9.088446996934518 C0.6194930334024245 6.767728890740168, 2.282703229899006 4.087849400307434, 4.2232199959683125 2.5731082341516807 C6.163736762037619 1.0583670679959276, 10.556131824714244 0.3921904459779073, 11.822714190463431 0 C13.089296556212618 -0.3921904459779073, 11.822714190463433 0.03666092638070584, 11.822714190463433 0.2199655582842368 M11.822714190463433 0 C14.229220685386888 -0.14041949466766943, 17.481691618889244 1.0583670679959274, 19.42220838495855 2.5731082341516807 C21.36272515102786 4.087849400307434, 23.025935347524438 6.76772889074017, 23.46581478687927 9.08844699693452 C23.905694226234104 11.40916510312887, 23.32806738683673 14.456611618881974, 22.06148502108754 16.497416871317782 C20.794902655338355 18.538222123753588, 18.246716797808293 20.52730157151077, 15.866320592384156 21.333278511549366 C13.485924386960018 22.139255451587964, 10.159503993966851 22.139255451587967, 7.779107788542713 21.33327851154937 C5.398711583118574 20.527301571510773, 2.850525725588511 18.53822212375359, 1.5839433598393242 16.497416871317782 C0.3173609940901376 14.456611618881974, -0.26026584530723823 11.409165103128869, 0.17961359404759314 9.088446996934518 C0.6194930334024245 6.767728890740168, 2.282703229899006 4.087849400307434, 4.2232199959683125 2.5731082341516807 C6.163736762037619 1.0583670679959276, 10.556131824714244 0.3921904459779073, 11.822714190463431 0 C13.089296556212618 -0.3921904459779073, 11.822714190463433 0.03666092638070584, 11.822714190463433 0.2199655582842368" stroke="#fab005" stroke-width="1" fill="none"></path></g><g transform="translate(260.11514126686393 67.81139619929712) rotate(0 11.822714190463444 10.998277914211856)"><path d="M11.822714190463433 0 C14.229220685386888 -0.14041949466766943, 17.481691618889244 1.0583670679959274, 19.42220838495855 2.5731082341516807 C21.36272515102786 4.087849400307434, 23.025935347524438 6.76772889074017, 23.46581478687927 9.08844699693452 C23.905694226234104 11.40916510312887, 23.32806738683673 14.456611618881974, 22.06148502108754 16.497416871317782 C20.794902655338355 18.538222123753588, 18.246716797808293 20.52730157151077, 15.866320592384156 21.333278511549366 C13.485924386960018 22.139255451587964, 10.159503993966851 22.139255451587967, 7.779107788542713 21.33327851154937 C5.398711583118574 20.527301571510773, 2.850525725588511 18.53822212375359, 1.5839433598393242 16.497416871317782 C0.3173609940901376 14.456611618881974, -0.26026584530723823 11.409165103128869, 0.17961359404759314 9.088446996934518 C0.6194930334024245 6.767728890740168, 2.282703229899006 4.087849400307434, 4.2232199959683125 2.5731082341516807 C6.163736762037619 1.0583670679959276, 10.556131824714244 0.3921904459779073, 11.822714190463431 0 C13.089296556212618 -0.3921904459779073, 11.822714190463433 0.03666092638070584, 11.822714190463433 0.2199655582842368 M11.822714190463433 0 C14.229220685386888 -0.14041949466766943, 17.481691618889244 1.0583670679959274, 19.42220838495855 2.5731082341516807 C21.36272515102786 4.087849400307434, 23.025935347524438 6.76772889074017, 23.46581478687927 9.08844699693452 C23.905694226234104 11.40916510312887, 23.32806738683673 14.456611618881974, 22.06148502108754 16.497416871317782 C20.794902655338355 18.538222123753588, 18.246716797808293 20.52730157151077, 15.866320592384156 21.333278511549366 C13.485924386960018 22.139255451587964, 10.159503993966851 22.139255451587967, 7.779107788542713 21.33327851154937 C5.398711583118574 20.527301571510773, 2.850525725588511 18.53822212375359, 1.5839433598393242 16.497416871317782 C0.3173609940901376 14.456611618881974, -0.26026584530723823 11.409165103128869, 0.17961359404759314 9.088446996934518 C0.6194930334024245 6.767728890740168, 2.282703229899006 4.087849400307434, 4.2232199959683125 2.5731082341516807 C6.163736762037619 1.0583670679959276, 10.556131824714244 0.3921904459779073, 11.822714190463431 0 C13.089296556212618 -0.3921904459779073, 11.822714190463433 0.03666092638070584, 11.822714190463433 0.2199655582842368" stroke="none" stroke-width="0" fill="#40c057"></path><path d="M11.822714190463433 0 C14.229220685386888 -0.14041949466766943, 17.481691618889244 1.0583670679959274, 19.42220838495855 2.5731082341516807 C21.36272515102786 4.087849400307434, 23.025935347524438 6.76772889074017, 23.46581478687927 9.08844699693452 C23.905694226234104 11.40916510312887, 23.32806738683673 14.456611618881974, 22.06148502108754 16.497416871317782 C20.794902655338355 18.538222123753588, 18.246716797808293 20.52730157151077, 15.866320592384156 21.333278511549366 C13.485924386960018 22.139255451587964, 10.159503993966851 22.139255451587967, 7.779107788542713 21.33327851154937 C5.398711583118574 20.527301571510773, 2.850525725588511 18.53822212375359, 1.5839433598393242 16.497416871317782 C0.3173609940901376 14.456611618881974, -0.26026584530723823 11.409165103128869, 0.17961359404759314 9.088446996934518 C0.6194930334024245 6.767728890740168, 2.282703229899006 4.087849400307434, 4.2232199959683125 2.5731082341516807 C6.163736762037619 1.0583670679959276, 10.556131824714244 0.3921904459779073, 11.822714190463431 0 C13.089296556212618 -0.3921904459779073, 11.822714190463433 0.03666092638070584, 11.822714190463433 0.2199655582842368 M11.822714190463433 0 C14.229220685386888 -0.14041949466766943, 17.481691618889244 1.0583670679959274, 19.42220838495855 2.5731082341516807 C21.36272515102786 4.087849400307434, 23.025935347524438 6.76772889074017, 23.46581478687927 9.08844699693452 C23.905694226234104 11.40916510312887, 23.32806738683673 14.456611618881974, 22.06148502108754 16.497416871317782 C20.794902655338355 18.538222123753588, 18.246716797808293 20.52730157151077, 15.866320592384156 21.333278511549366 C13.485924386960018 22.139255451587964, 10.159503993966851 22.139255451587967, 7.779107788542713 21.33327851154937 C5.398711583118574 20.527301571510773, 2.850525725588511 18.53822212375359, 1.5839433598393242 16.497416871317782 C0.3173609940901376 14.456611618881974, -0.26026584530723823 11.409165103128869, 0.17961359404759314 9.088446996934518 C0.6194930334024245 6.767728890740168, 2.282703229899006 4.087849400307434, 4.2232199959683125 2.5731082341516807 C6.163736762037619 1.0583670679959276, 10.556131824714244 0.3921904459779073, 11.822714190463431 0 C13.089296556212618 -0.3921904459779073, 11.822714190463433 0.03666092638070584, 11.822714190463433 0.2199655582842368" stroke="#40c057" stroke-width="1" fill="none"></path></g><g transform="translate(163.45921505453418 153.17987551709575) rotate(0.3921184794924897 347 198)"><text x="0" y="29" font-family="Cascadia" font-size="30.38097705168701px" fill="#ffffff" text-anchor="start" style="white-space: pre;" direction="ltr">&lt;script&gt;</text><text x="0" y="65" font-family="Cascadia" font-size="30.38097705168701px" fill="#ffffff" text-anchor="start" style="white-space: pre;" direction="ltr">let add = document.getElementbyId('b2);</text><text x="0" y="101" font-family="Cascadia" font-size="30.38097705168701px" fill="#ffffff" text-anchor="start" style="white-space: pre;" direction="ltr">add.addEventListener('click', added);</text><text x="0" y="137" font-family="Cascadia" font-size="30.38097705168701px" fill="#ffffff" text-anchor="start" style="white-space: pre;" direction="ltr">function added() {</text><text x="0" y="173" font-family="Cascadia" font-size="30.38097705168701px" fill="#ffffff" text-anchor="start" style="white-space: pre;" direction="ltr">   let para = document.createElement('p</text><text x="0" y="209" font-family="Cascadia" font-size="30.38097705168701px" fill="#ffffff" text-anchor="start" style="white-space: pre;" direction="ltr"></text><text x="0" y="245" font-family="Cascadia" font-size="30.38097705168701px" fill="#ffffff" text-anchor="start" style="white-space: pre;" direction="ltr">}</text><text x="0" y="281" font-family="Cascadia" font-size="30.38097705168701px" fill="#ffffff" text-anchor="start" style="white-space: pre;" direction="ltr">para.textcontent = 'Paragraph added";</text><text x="0" y="317" font-family="Cascadia" font-size="30.38097705168701px" fill="#ffffff" text-anchor="start" style="white-space: pre;" direction="ltr">document.body.appendChild(par);</text><text x="0" y="353" font-family="Cascadia" font-size="30.38097705168701px" fill="#ffffff" text-anchor="start" style="white-space: pre;" direction="ltr">}</text><text x="0" y="389" font-family="Cascadia" font-size="30.38097705168701px" fill="#ffffff" text-anchor="start" style="white-space: pre;" direction="ltr">&lt;/script&gt;</text></g><g transform="translate(883.8847004128817 699.7979146029904) rotate(0 84 10)"><text x="84" y="14" font-family="Virgil" font-size="16px" fill="#adb5bd" text-anchor="middle" style="white-space: pre;" direction="ltr">Made with Excalidraw</text></g></svg>