<svg version="1.1" xmlns="http://www.w3.org/2000/svg" viewBox="0 0 950.0091236347803 644.264498363341">
  <!-- svg-source:excalidraw -->
  <defs>
    <style>
      @font-face {
        font-family: "Virgil";
        src: url("https://excalidraw.com/FG_Virgil.woff2");
      }
      @font-face {
        font-family: "Cascadia";
        src: url("https://excalidraw.com/Cascadia.woff2");
      }
    </style>
  </defs>
  <g transform="translate(88.8248340963255 10.19311810358895) rotate(0 46.53354850476529 37.52581299534385)"><path d="M46.53354850476528 0 C54.92456688273848 -0.5141252481000679, 65.77075702906907 2.6222681407069857, 73.03150127731224 6.678298109339796 C80.29224552555542 10.734328077972606, 86.99349962320355 17.667786252888295, 90.09801399422429 24.33617981179686 C93.20252836524503 31.004573370705426, 93.81529558938496 39.781389603666035, 91.65858750343672 46.6886594627912 C89.50187941748848 53.595929321916365, 83.80805698138262 61.09216355268248, 77.15776547853486 65.77979896654784 C70.50747397568709 70.46743438041321, 60.53366919705992 74.014945247373, 51.756838486350155 74.81447194598337 C42.98000777564039 75.61399864459374, 32.27620591953039 73.95011742855816, 24.496781214276247 70.57695915821003 C16.717356509022107 67.2038008878619, 9.093371353869038 60.920754319833115, 5.080290254825307 54.57552232389463 C1.0672091557815762 48.23029032795615, -0.7633474359021772 39.564408798503834, 0.4182946200138602 32.505567182579114 C1.5999366759298976 25.44672556665439, 6.214360294407204 17.482464047671353, 12.170142590321532 12.222472628346289 C18.12592488623586 6.962481209021224, 30.425754076425875 2.9826974380197733, 36.15298839549983 0.9456186666287252 C41.88022271457379 -1.091460104762323, 44.80345515322103 0.03251706778697402, 46.53354850476527 0 C48.26364185630951 -0.03251706778697402, 46.53354850476528 0.12508604331781703, 46.53354850476528 0.7505162599068811 M46.53354850476528 0 C54.92456688273848 -0.5141252481000679, 65.77075702906907 2.6222681407069857, 73.03150127731224 6.678298109339796 C80.29224552555542 10.734328077972606, 86.99349962320355 17.667786252888295, 90.09801399422429 24.33617981179686 C93.20252836524503 31.004573370705426, 93.81529558938496 39.781389603666035, 91.65858750343672 46.6886594627912 C89.50187941748848 53.595929321916365, 83.80805698138262 61.09216355268248, 77.15776547853486 65.77979896654784 C70.50747397568709 70.46743438041321, 60.53366919705992 74.014945247373, 51.756838486350155 74.81447194598337 C42.98000777564039 75.61399864459374, 32.27620591953039 73.95011742855816, 24.496781214276247 70.57695915821003 C16.717356509022107 67.2038008878619, 9.093371353869038 60.920754319833115, 5.080290254825307 54.57552232389463 C1.0672091557815762 48.23029032795615, -0.7633474359021772 39.564408798503834, 0.4182946200138602 32.505567182579114 C1.5999366759298976 25.44672556665439, 6.214360294407204 17.482464047671353, 12.170142590321532 12.222472628346289 C18.12592488623586 6.962481209021224, 30.425754076425875 2.9826974380197733, 36.15298839549983 0.9456186666287252 C41.88022271457379 -1.091460104762323, 44.80345515322103 0.03251706778697402, 46.53354850476527 0 C48.26364185630951 -0.03251706778697402, 46.53354850476528 0.12508604331781703, 46.53354850476528 0.7505162599068811" stroke="none" stroke-width="0" fill="#000000"></path><path d="M46.53354850476528 0 C54.92456688273848 -0.5141252481000679, 65.77075702906907 2.6222681407069857, 73.03150127731224 6.678298109339796 C80.29224552555542 10.734328077972606, 86.99349962320355 17.667786252888295, 90.09801399422429 24.33617981179686 C93.20252836524503 31.004573370705426, 93.81529558938496 39.781389603666035, 91.65858750343672 46.6886594627912 C89.50187941748848 53.595929321916365, 83.80805698138262 61.09216355268248, 77.15776547853486 65.77979896654784 C70.50747397568709 70.46743438041321, 60.53366919705992 74.014945247373, 51.756838486350155 74.81447194598337 C42.98000777564039 75.61399864459374, 32.27620591953039 73.95011742855816, 24.496781214276247 70.57695915821003 C16.717356509022107 67.2038008878619, 9.093371353869038 60.920754319833115, 5.080290254825307 54.57552232389463 C1.0672091557815762 48.23029032795615, -0.7633474359021772 39.564408798503834, 0.4182946200138602 32.505567182579114 C1.5999366759298976 25.44672556665439, 6.214360294407204 17.482464047671353, 12.170142590321532 12.222472628346289 C18.12592488623586 6.962481209021224, 30.425754076425875 2.9826974380197733, 36.15298839549983 0.9456186666287252 C41.88022271457379 -1.091460104762323, 44.80345515322103 0.03251706778697402, 46.53354850476527 0 C48.26364185630951 -0.03251706778697402, 46.53354850476528 0.12508604331781703, 46.53354850476528 0.7505162599068811 M46.53354850476528 0 C54.92456688273848 -0.5141252481000679, 65.77075702906907 2.6222681407069857, 73.03150127731224 6.678298109339796 C80.29224552555542 10.734328077972606, 86.99349962320355 17.667786252888295, 90.09801399422429 24.33617981179686 C93.20252836524503 31.004573370705426, 93.81529558938496 39.781389603666035, 91.65858750343672 46.6886594627912 C89.50187941748848 53.595929321916365, 83.80805698138262 61.09216355268248, 77.15776547853486 65.77979896654784 C70.50747397568709 70.46743438041321, 60.53366919705992 74.014945247373, 51.756838486350155 74.81447194598337 C42.98000777564039 75.61399864459374, 32.27620591953039 73.95011742855816, 24.496781214276247 70.57695915821003 C16.717356509022107 67.2038008878619, 9.093371353869038 60.920754319833115, 5.080290254825307 54.57552232389463 C1.0672091557815762 48.23029032795615, -0.7633474359021772 39.564408798503834, 0.4182946200138602 32.505567182579114 C1.5999366759298976 25.44672556665439, 6.214360294407204 17.482464047671353, 12.170142590321532 12.222472628346289 C18.12592488623586 6.962481209021224, 30.425754076425875 2.9826974380197733, 36.15298839549983 0.9456186666287252 C41.88022271457379 -1.091460104762323, 44.80345515322103 0.03251706778697402, 46.53354850476527 0 C48.26364185630951 -0.03251706778697402, 46.53354850476528 0.12508604331781703, 46.53354850476528 0.7505162599068811" stroke="#000000" stroke-width="1" fill="none"></path></g><g transform="translate(751.5588055754038 10) rotate(0 45.94603590395877 38.71122467682092)"><path d="M45.94603590395881 0 C54.212949197668316 -0.5309231168041363, 64.89120850255154 2.6900068828598718, 72.05207788409409 6.855837668572683 C79.21294726563664 11.021668454285493, 85.82793687350888 18.138877577515803, 88.91125219321415 24.994984714276864 C91.99456751291943 31.851091851037925, 92.63833153924277 40.87455840808659, 90.55196980232574 47.992480489139055 C88.46560806540872 55.11040257019152, 82.91012263864793 62.8439775143991, 76.393081771712 67.70251720059166 C69.87604090477608 72.56105688678421, 60.08908186121458 76.26547609732455, 51.449724600710184 77.14371860629441 C42.81036734020579 78.02196111526428, 32.25851591212389 76.38510403920564, 24.55693820868562 72.97197225441082 C16.855360505247347 69.55884046961599, 9.276125960190505 63.16048862995589, 5.2402583800805544 56.66492789752541 C1.2043907999706045 50.169367165094926, -0.7176307467612517 41.275843155620414, 0.34173272802591725 33.99860785982789 C1.4010962028130862 26.721372564035374, 5.817075608282671 18.482799245469018, 11.596439228803568 13.001516122770287 C17.375802849324465 7.520233000071556, 29.29298167195876 3.2778284774305564, 35.0179144511513 1.1109091236355084 C40.74284723034384 -1.0560102301595395, 44.124682328490884 0.05611410501651548, 45.9460359039588 0 C47.76738947942672 -0.05611410501651548, 45.94603590395881 0.12903741558940018, 45.94603590395881 0.7742244935364155 M45.94603590395881 0 C54.212949197668316 -0.5309231168041363, 64.89120850255154 2.6900068828598718, 72.05207788409409 6.855837668572683 C79.21294726563664 11.021668454285493, 85.82793687350888 18.138877577515803, 88.91125219321415 24.994984714276864 C91.99456751291943 31.851091851037925, 92.63833153924277 40.87455840808659, 90.55196980232574 47.992480489139055 C88.46560806540872 55.11040257019152, 82.91012263864793 62.8439775143991, 76.393081771712 67.70251720059166 C69.87604090477608 72.56105688678421, 60.08908186121458 76.26547609732455, 51.449724600710184 77.14371860629441 C42.81036734020579 78.02196111526428, 32.25851591212389 76.38510403920564, 24.55693820868562 72.97197225441082 C16.855360505247347 69.55884046961599, 9.276125960190505 63.16048862995589, 5.2402583800805544 56.66492789752541 C1.2043907999706045 50.169367165094926, -0.7176307467612517 41.275843155620414, 0.34173272802591725 33.99860785982789 C1.4010962028130862 26.721372564035374, 5.817075608282671 18.482799245469018, 11.596439228803568 13.001516122770287 C17.375802849324465 7.520233000071556, 29.29298167195876 3.2778284774305564, 35.0179144511513 1.1109091236355084 C40.74284723034384 -1.0560102301595395, 44.124682328490884 0.05611410501651548, 45.9460359039588 0 C47.76738947942672 -0.05611410501651548, 45.94603590395881 0.12903741558940018, 45.94603590395881 0.7742244935364155" stroke="none" stroke-width="0" fill="#000000"></path><path d="M45.94603590395881 0 C54.212949197668316 -0.5309231168041363, 64.89120850255154 2.6900068828598718, 72.05207788409409 6.855837668572683 C79.21294726563664 11.021668454285493, 85.82793687350888 18.138877577515803, 88.91125219321415 24.994984714276864 C91.99456751291943 31.851091851037925, 92.63833153924277 40.87455840808659, 90.55196980232574 47.992480489139055 C88.46560806540872 55.11040257019152, 82.91012263864793 62.8439775143991, 76.393081771712 67.70251720059166 C69.87604090477608 72.56105688678421, 60.08908186121458 76.26547609732455, 51.449724600710184 77.14371860629441 C42.81036734020579 78.02196111526428, 32.25851591212389 76.38510403920564, 24.55693820868562 72.97197225441082 C16.855360505247347 69.55884046961599, 9.276125960190505 63.16048862995589, 5.2402583800805544 56.66492789752541 C1.2043907999706045 50.169367165094926, -0.7176307467612517 41.275843155620414, 0.34173272802591725 33.99860785982789 C1.4010962028130862 26.721372564035374, 5.817075608282671 18.482799245469018, 11.596439228803568 13.001516122770287 C17.375802849324465 7.520233000071556, 29.29298167195876 3.2778284774305564, 35.0179144511513 1.1109091236355084 C40.74284723034384 -1.0560102301595395, 44.124682328490884 0.05611410501651548, 45.9460359039588 0 C47.76738947942672 -0.05611410501651548, 45.94603590395881 0.12903741558940018, 45.94603590395881 0.7742244935364155 M45.94603590395881 0 C54.212949197668316 -0.5309231168041363, 64.89120850255154 2.6900068828598718, 72.05207788409409 6.855837668572683 C79.21294726563664 11.021668454285493, 85.82793687350888 18.138877577515803, 88.91125219321415 24.994984714276864 C91.99456751291943 31.851091851037925, 92.63833153924277 40.87455840808659, 90.55196980232574 47.992480489139055 C88.46560806540872 55.11040257019152, 82.91012263864793 62.8439775143991, 76.393081771712 67.70251720059166 C69.87604090477608 72.56105688678421, 60.08908186121458 76.26547609732455, 51.449724600710184 77.14371860629441 C42.81036734020579 78.02196111526428, 32.25851591212389 76.38510403920564, 24.55693820868562 72.97197225441082 C16.855360505247347 69.55884046961599, 9.276125960190505 63.16048862995589, 5.2402583800805544 56.66492789752541 C1.2043907999706045 50.169367165094926, -0.7176307467612517 41.275843155620414, 0.34173272802591725 33.99860785982789 C1.4010962028130862 26.721372564035374, 5.817075608282671 18.482799245469018, 11.596439228803568 13.001516122770287 C17.375802849324465 7.520233000071556, 29.29298167195876 3.2778284774305564, 35.0179144511513 1.1109091236355084 C40.74284723034384 -1.0560102301595395, 44.124682328490884 0.05611410501651548, 45.9460359039588 0 C47.76738947942672 -0.05611410501651548, 45.94603590395881 0.12903741558940018, 45.94603590395881 0.7742244935364155" stroke="#000000" stroke-width="1" fill="none"></path></g><g transform="translate(118.7167045125675 44.395970538649394) rotate(0 345.39507300844537 235.91932420156803)"><path d="M0 0 L690.7901460168907 0 L690.7901460168907 471.83864840313606 L0 471.83864840313606" stroke="none" stroke-width="0" fill="#4f4f4f"></path><path d="M0 0 C152.93659666945896 0, 305.87319333891793 0, 690.7901460168907 0 M0 0 C250.02436884772126 0, 500.0487376954425 0, 690.7901460168907 0 M690.7901460168907 0 C690.7901460168907 151.64139329261528, 690.7901460168907 303.28278658523055, 690.7901460168907 471.83864840313606 M690.7901460168907 0 C690.7901460168907 126.30922978590876, 690.7901460168907 252.6184595718175, 690.7901460168907 471.83864840313606 M690.7901460168907 471.83864840313606 C514.497818109204 471.83864840313606, 338.2054902015173 471.83864840313606, 0 471.83864840313606 M690.7901460168907 471.83864840313606 C461.3989318498144 471.83864840313606, 232.00771768273802 471.83864840313606, 0 471.83864840313606 M0 471.83864840313606 C0 341.6717906943789, 0 211.50493298562174, 0 0 M0 471.83864840313606 C0 299.67031013778467, 0 127.50197187243322, 0 0" stroke="#eeeeee" stroke-width="1" fill="none"></path></g><g transform="translate(10 543.3970341331174) rotate(0 464.9001605439072 21.426715106365975)"><path d="M0 0 L929.8003210878144 0 L929.8003210878144 42.85343021273194 L0 42.85343021273194" stroke="none" stroke-width="0" fill="#000000"></path><path d="M0 0 C228.49039662873608 0, 456.98079325747216 0, 929.8003210878144 0 M0 0 C364.13212026837357 0, 728.2642405367471 0, 929.8003210878144 0 M929.8003210878144 0 C929.8003210878144 16.77361650414827, 929.8003210878144 33.54723300829654, 929.8003210878144 42.85343021273194 M929.8003210878144 0 C929.8003210878144 15.465866876970956, 929.8003210878144 30.931733753941913, 929.8003210878144 42.85343021273194 M929.8003210878144 42.85343021273194 C693.8669457156329 42.85343021273194, 457.9335703434516 42.85343021273194, 0 42.85343021273194 M929.8003210878144 42.85343021273194 C731.4818957024556 42.85343021273194, 533.1634703170969 42.85343021273194, 0 42.85343021273194 M0 42.85343021273194 C0 32.55981388807675, 0 22.266197563421557, 0 0 M0 42.85343021273194 C0 32.35955240705776, 0 21.865674601383578, 0 0" stroke="#000000" stroke-width="1" fill="none"></path></g><g transform="translate(452.332675901278 14.007072579334839) rotate(0 9.973453539421826 11.848093417664977)"><path d="M9.973453539421808 0 C12.003544120381296 -0.15126943540261303, 14.747276838691565 1.1401450290315311, 16.384265900346506 2.771927293508181 C18.021254962001446 4.403709557984831, 19.424312614738383 7.29065811469502, 19.79538790935145 9.7906935868599 C20.16646320396452 12.29072905902478, 19.6791863948457 15.57364582886964, 18.61071766802492 17.772140126497465 C17.542248941204136 19.97063442412529, 15.392639904694763 22.11340616493862, 13.384575548426753 22.98165937262685 C11.376511192158743 23.84991258031508, 8.570395886684873 23.84991258031508, 6.562331530416863 22.98165937262685 C4.554267174148853 22.11340616493862, 2.4046581376394807 19.97063442412529, 1.3361894108186974 17.772140126497465 C0.26772068399791427 15.57364582886964, -0.21955612512090356 12.290729059024779, 0.1515191694921647 9.790693586859899 C0.5225944641052329 7.2906581146950185, 1.9256521168421668 4.403709557984831, 3.562641178497107 2.771927293508181 C5.1996302401520476 1.1401450290315314, 8.904984812601022 0.4224942375258136, 9.973453539421806 0 C11.04192226624259 -0.4224942375258136, 9.973453539421808 0.03949364472554992, 9.973453539421808 0.23696186835329947 M9.973453539421808 0 C12.003544120381296 -0.15126943540261303, 14.747276838691565 1.1401450290315311, 16.384265900346506 2.771927293508181 C18.021254962001446 4.403709557984831, 19.424312614738383 7.29065811469502, 19.79538790935145 9.7906935868599 C20.16646320396452 12.29072905902478, 19.6791863948457 15.57364582886964, 18.61071766802492 17.772140126497465 C17.542248941204136 19.97063442412529, 15.392639904694763 22.11340616493862, 13.384575548426753 22.98165937262685 C11.376511192158743 23.84991258031508, 8.570395886684873 23.84991258031508, 6.562331530416863 22.98165937262685 C4.554267174148853 22.11340616493862, 2.4046581376394807 19.97063442412529, 1.3361894108186974 17.772140126497465 C0.26772068399791427 15.57364582886964, -0.21955612512090356 12.290729059024779, 0.1515191694921647 9.790693586859899 C0.5225944641052329 7.2906581146950185, 1.9256521168421668 4.403709557984831, 3.562641178497107 2.771927293508181 C5.1996302401520476 1.1401450290315314, 8.904984812601022 0.4224942375258136, 9.973453539421806 0 C11.04192226624259 -0.4224942375258136, 9.973453539421808 0.03949364472554992, 9.973453539421808 0.23696186835329947" stroke="none" stroke-width="0" fill="#ced4da"></path><path d="M9.973453539421808 0 C12.003544120381296 -0.15126943540261303, 14.747276838691565 1.1401450290315311, 16.384265900346506 2.771927293508181 C18.021254962001446 4.403709557984831, 19.424312614738383 7.29065811469502, 19.79538790935145 9.7906935868599 C20.16646320396452 12.29072905902478, 19.6791863948457 15.57364582886964, 18.61071766802492 17.772140126497465 C17.542248941204136 19.97063442412529, 15.392639904694763 22.11340616493862, 13.384575548426753 22.98165937262685 C11.376511192158743 23.84991258031508, 8.570395886684873 23.84991258031508, 6.562331530416863 22.98165937262685 C4.554267174148853 22.11340616493862, 2.4046581376394807 19.97063442412529, 1.3361894108186974 17.772140126497465 C0.26772068399791427 15.57364582886964, -0.21955612512090356 12.290729059024779, 0.1515191694921647 9.790693586859899 C0.5225944641052329 7.2906581146950185, 1.9256521168421668 4.403709557984831, 3.562641178497107 2.771927293508181 C5.1996302401520476 1.1401450290315314, 8.904984812601022 0.4224942375258136, 9.973453539421806 0 C11.04192226624259 -0.4224942375258136, 9.973453539421808 0.03949364472554992, 9.973453539421808 0.23696186835329947 M9.973453539421808 0 C12.003544120381296 -0.15126943540261303, 14.747276838691565 1.1401450290315311, 16.384265900346506 2.771927293508181 C18.021254962001446 4.403709557984831, 19.424312614738383 7.29065811469502, 19.79538790935145 9.7906935868599 C20.16646320396452 12.29072905902478, 19.6791863948457 15.57364582886964, 18.61071766802492 17.772140126497465 C17.542248941204136 19.97063442412529, 15.392639904694763 22.11340616493862, 13.384575548426753 22.98165937262685 C11.376511192158743 23.84991258031508, 8.570395886684873 23.84991258031508, 6.562331530416863 22.98165937262685 C4.554267174148853 22.11340616493862, 2.4046581376394807 19.97063442412529, 1.3361894108186974 17.772140126497465 C0.26772068399791427 15.57364582886964, -0.21955612512090356 12.290729059024779, 0.1515191694921647 9.790693586859899 C0.5225944641052329 7.2906581146950185, 1.9256521168421668 4.403709557984831, 3.562641178497107 2.771927293508181 C5.1996302401520476 1.1401450290315314, 8.904984812601022 0.4224942375258136, 9.973453539421806 0 C11.04192226624259 -0.4224942375258136, 9.973453539421808 0.03949364472554992, 9.973453539421808 0.23696186835329947" stroke="#ced4da" stroke-width="1" fill="none"></path></g><g transform="translate(803.3201825198598 43.150880628242746) rotate(0 19.77612156875307 245.79064142967425)"><path d="M0 0 L39.55224313750623 0 L39.55224313750623 491.5812828593485 L0 491.5812828593485" stroke="none" stroke-width="0" fill="#000000"></path><path d="M0 0 C10.755241800023898 0, 21.510483600047795 0, 39.55224313750623 0 M0 0 C14.044139813802088 0, 28.088279627604177 0, 39.55224313750623 0 M39.55224313750623 0 C39.55224313750623 111.35513787438907, 39.55224313750623 222.71027574877814, 39.55224313750623 491.5812828593485 M39.55224313750623 0 C39.55224313750623 102.58227647707446, 39.55224313750623 205.16455295414892, 39.55224313750623 491.5812828593485 M39.55224313750623 491.5812828593485 C23.764918653068598 491.5812828593485, 7.977594168630969 491.5812828593485, 0 491.5812828593485 M39.55224313750623 491.5812828593485 C25.032223377324776 491.5812828593485, 10.512203617143324 491.5812828593485, 0 491.5812828593485 M0 491.5812828593485 C0 296.33129465257815, 0 101.0813064458078, 0 0 M0 491.5812828593485 C0 370.2255107156309, 0 248.86973857191333, 0 0" stroke="#000000" stroke-width="1" fill="none"></path></g><g transform="translate(88.78781447123993 44.315225418973526) rotate(0 18.969532160100357 243.3673293898774)"><path d="M0 0 L37.93906432020077 0 L37.93906432020077 486.7346587797548 L0 486.7346587797548" stroke="none" stroke-width="0" fill="#000000"></path><path d="M0 0 C11.025644779779004 0, 22.051289559558008 0, 37.93906432020077 0 M0 0 C14.656230859318578 0, 29.312461718637156 0, 37.93906432020077 0 M37.93906432020077 0 C37.93906432020077 108.8433776599402, 37.93906432020077 217.6867553198804, 37.93906432020077 486.7346587797548 M37.93906432020077 0 C37.93906432020077 145.5478921559971, 37.93906432020077 291.0957843119942, 37.93906432020077 486.7346587797548 M37.93906432020077 486.7346587797548 C25.32173222214371 486.7346587797548, 12.704400124086643 486.7346587797548, 0 486.7346587797548 M37.93906432020077 486.7346587797548 C23.01051082912573 486.7346587797548, 8.081957338050692 486.7346587797548, 0 486.7346587797548 M0 486.7346587797548 C0 306.0293255536652, 0 125.32399232757564, 0 0 M0 486.7346587797548 C0 381.48929617273797, 0 276.24393356572114, 0 0" stroke="#000000" stroke-width="1" fill="none"></path></g><g transform="translate(89.44029472362513 511.5854400648496) rotate(0 376.9885660943064 15.057144440765995)"><path d="M0 0 L753.9771321886128 0 L753.9771321886128 30.114288881531962 L0 30.114288881531962" stroke="none" stroke-width="0" fill="#000000"></path><path d="M0 0 C236.4892193341309 0, 472.9784386682618 0, 753.9771321886128 0 M0 0 C235.3285008474137 0, 470.6570016948274 0, 753.9771321886128 0 M753.9771321886128 0 C753.9771321886128 11.9636465084735, 753.9771321886128 23.927293016947, 753.9771321886128 30.114288881531962 M753.9771321886128 0 C753.9771321886128 10.667213048064006, 753.9771321886128 21.334426096128013, 753.9771321886128 30.114288881531962 M753.9771321886128 30.114288881531962 C477.62431092150615 30.114288881531962, 201.2714896543995 30.114288881531962, 0 30.114288881531962 M753.9771321886128 30.114288881531962 C452.5968739798651 30.114288881531962, 151.2166157711174 30.114288881531962, 0 30.114288881531962 M0 30.114288881531962 C0 21.53921300645836, 0 12.964137131384756, 0 0 M0 30.114288881531962 C0 21.981003648584654, 0 13.847718415637342, 0 0" stroke="#000000" stroke-width="1" fill="none"></path></g><g transform="translate(129.33654172923616 10.165005948575) rotate(0 336.62289289595515 17.675983709332055)"><path d="M0 0 L673.2457857919103 0 L673.2457857919103 35.35196741866411 L0 35.35196741866411" stroke="none" stroke-width="0" fill="#000000"></path><path d="M0 0 C183.77840002777174 0, 367.5568000555435 0, 673.2457857919103 0 M0 0 C185.1768378853711 0, 370.3536757707422 0, 673.2457857919103 0 M673.2457857919103 0 C673.2457857919103 13.089205902446606, 673.2457857919103 26.178411804893212, 673.2457857919103 35.35196741866411 M673.2457857919103 0 C673.2457857919103 8.874472534664477, 673.2457857919103 17.748945069328954, 673.2457857919103 35.35196741866411 M673.2457857919103 35.35196741866411 C507.63441471379303 35.35196741866411, 342.02304363567583 35.35196741866411, 0 35.35196741866411 M673.2457857919103 35.35196741866411 C484.3681742633729 35.35196741866411, 295.49056273483546 35.35196741866411, 0 35.35196741866411 M0 35.35196741866411 C0 23.32940094831752, 0 11.306834477970934, 0 0 M0 35.35196741866411 C0 25.329290534548868, 0 15.30661365043363, 0 0" stroke="#000000" stroke-width="1" fill="none"></path></g><g transform="translate(297.560401815721 550.1987839608751) rotate(0 167.47996941783458 11.936038633627902)"><path d="M0 0 L334.9599388356693 0 L334.9599388356693 23.872077267255783 L0 23.872077267255783" stroke="none" stroke-width="0" fill="#868e96"></path><path d="M0 0 C79.47922768477372 0, 158.95845536954744 0, 334.9599388356693 0 M0 0 C69.25504753388084 0, 138.51009506776168 0, 334.9599388356693 0 M334.9599388356693 0 C334.9599388356693 5.650392770739321, 334.9599388356693 11.300785541478643, 334.9599388356693 23.872077267255783 M334.9599388356693 0 C334.9599388356693 8.797408643547657, 334.9599388356693 17.594817287095314, 334.9599388356693 23.872077267255783 M334.9599388356693 23.872077267255783 C202.92672441375578 23.872077267255783, 70.89350999184228 23.872077267255783, 0 23.872077267255783 M334.9599388356693 23.872077267255783 C220.3658251975305 23.872077267255783, 105.77171155939175 23.872077267255783, 0 23.872077267255783 M0 23.872077267255783 C0 19.09653598806358, 0 14.320994708871375, 0 0 M0 23.872077267255783 C0 15.739578591769465, 0 7.607079916283148, 0 0" stroke="#868e96" stroke-width="1" fill="none"></path></g><g transform="translate(40.84286914758354 584.3837336501731) rotate(0 436.28032374942757 16.64024463351103)"><path d="M0 0 L872.5606474988551 0 L872.5606474988551 33.28048926702201 L0 33.28048926702201" stroke="none" stroke-width="0" fill="#000000"></path><path d="M0 0 C251.40938343379972 0, 502.81876686759944 0, 872.5606474988551 0 M0 0 C338.999516919991 0, 677.999033839982 0, 872.5606474988551 0 M872.5606474988551 0 C872.5606474988551 9.247367154177606, 872.5606474988551 18.494734308355213, 872.5606474988551 33.28048926702201 M872.5606474988551 0 C872.5606474988551 10.439742374951681, 872.5606474988551 20.879484749903362, 872.5606474988551 33.28048926702201 M872.5606474988551 33.28048926702201 C567.6286295176143 33.28048926702201, 262.69661153637344 33.28048926702201, 0 33.28048926702201 M872.5606474988551 33.28048926702201 C542.6914133746768 33.28048926702201, 212.82217925049838 33.28048926702201, 0 33.28048926702201 M0 33.28048926702201 C0 25.302342935758332, 0 17.324196604494652, 0 0 M0 33.28048926702201 C0 24.80653920428182, 0 16.332589141541625, 0 0" stroke="#000000" stroke-width="1" fill="none"></path></g><g transform="translate(10.038829503512375 554.7088686157405) rotate(0 35.51445703113427 31.66797474100366)"><path d="M35.51445703113428 0 C42.577603622517344 -0.4107215493645248, 52.033468394112134 2.8609723384182475, 57.81913047760713 7.02468177913217 C63.60479256110213 11.188391219846093, 68.65878111892431 18.50204991210074, 70.22842953210424 24.982256644283535 C71.79807794528418 31.462463376466328, 70.57975411848817 39.98413456043312, 67.23702095668676 45.90592217222893 C63.89428779488536 51.827709784024734, 56.94415581572285 57.776789945690005, 50.1720305612958 60.51298231505836 C43.399905306868746 63.24917468442671, 33.80136194295001 63.98637947699979, 26.60426943012445 62.32307638843906 C19.40717691729889 60.65977329987834, 11.418575487784917 55.8580449234064, 6.989475484342449 50.53316378369399 C2.560375480899981 45.20828264398158, -0.2741746506258765 36.99788766021416, 0.029669409469640584 30.373789550164595 C0.33351346956515765 23.749691440115026, 3.910550858271816 15.773136988434857, 8.812539844915552 10.788575123396587 C13.714528831559289 5.804013258358317, 24.991283798295605 2.264514213834408, 29.441603329332057 0.46641835993497693 C33.89192286036851 -1.3316774939644542, 34.50231474750057 -0.027823522480849405, 35.51445703113427 0 C36.52659931476797 0.027823522480849405, 35.51445703113428 0.10555991580334612, 35.51445703113428 0.6333594948200734 M35.51445703113428 0 C42.577603622517344 -0.4107215493645248, 52.033468394112134 2.8609723384182475, 57.81913047760713 7.02468177913217 C63.60479256110213 11.188391219846093, 68.65878111892431 18.50204991210074, 70.22842953210424 24.982256644283535 C71.79807794528418 31.462463376466328, 70.57975411848817 39.98413456043312, 67.23702095668676 45.90592217222893 C63.89428779488536 51.827709784024734, 56.94415581572285 57.776789945690005, 50.1720305612958 60.51298231505836 C43.399905306868746 63.24917468442671, 33.80136194295001 63.98637947699979, 26.60426943012445 62.32307638843906 C19.40717691729889 60.65977329987834, 11.418575487784917 55.8580449234064, 6.989475484342449 50.53316378369399 C2.560375480899981 45.20828264398158, -0.2741746506258765 36.99788766021416, 0.029669409469640584 30.373789550164595 C0.33351346956515765 23.749691440115026, 3.910550858271816 15.773136988434857, 8.812539844915552 10.788575123396587 C13.714528831559289 5.804013258358317, 24.991283798295605 2.264514213834408, 29.441603329332057 0.46641835993497693 C33.89192286036851 -1.3316774939644542, 34.50231474750057 -0.027823522480849405, 35.51445703113427 0 C36.52659931476797 0.027823522480849405, 35.51445703113428 0.10555991580334612, 35.51445703113428 0.6333594948200734" stroke="none" stroke-width="0" fill="#000000"></path><path d="M35.51445703113428 0 C42.577603622517344 -0.4107215493645248, 52.033468394112134 2.8609723384182475, 57.81913047760713 7.02468177913217 C63.60479256110213 11.188391219846093, 68.65878111892431 18.50204991210074, 70.22842953210424 24.982256644283535 C71.79807794528418 31.462463376466328, 70.57975411848817 39.98413456043312, 67.23702095668676 45.90592217222893 C63.89428779488536 51.827709784024734, 56.94415581572285 57.776789945690005, 50.1720305612958 60.51298231505836 C43.399905306868746 63.24917468442671, 33.80136194295001 63.98637947699979, 26.60426943012445 62.32307638843906 C19.40717691729889 60.65977329987834, 11.418575487784917 55.8580449234064, 6.989475484342449 50.53316378369399 C2.560375480899981 45.20828264398158, -0.2741746506258765 36.99788766021416, 0.029669409469640584 30.373789550164595 C0.33351346956515765 23.749691440115026, 3.910550858271816 15.773136988434857, 8.812539844915552 10.788575123396587 C13.714528831559289 5.804013258358317, 24.991283798295605 2.264514213834408, 29.441603329332057 0.46641835993497693 C33.89192286036851 -1.3316774939644542, 34.50231474750057 -0.027823522480849405, 35.51445703113427 0 C36.52659931476797 0.027823522480849405, 35.51445703113428 0.10555991580334612, 35.51445703113428 0.6333594948200734 M35.51445703113428 0 C42.577603622517344 -0.4107215493645248, 52.033468394112134 2.8609723384182475, 57.81913047760713 7.02468177913217 C63.60479256110213 11.188391219846093, 68.65878111892431 18.50204991210074, 70.22842953210424 24.982256644283535 C71.79807794528418 31.462463376466328, 70.57975411848817 39.98413456043312, 67.23702095668676 45.90592217222893 C63.89428779488536 51.827709784024734, 56.94415581572285 57.776789945690005, 50.1720305612958 60.51298231505836 C43.399905306868746 63.24917468442671, 33.80136194295001 63.98637947699979, 26.60426943012445 62.32307638843906 C19.40717691729889 60.65977329987834, 11.418575487784917 55.8580449234064, 6.989475484342449 50.53316378369399 C2.560375480899981 45.20828264398158, -0.2741746506258765 36.99788766021416, 0.029669409469640584 30.373789550164595 C0.33351346956515765 23.749691440115026, 3.910550858271816 15.773136988434857, 8.812539844915552 10.788575123396587 C13.714528831559289 5.804013258358317, 24.991283798295605 2.264514213834408, 29.441603329332057 0.46641835993497693 C33.89192286036851 -1.3316774939644542, 34.50231474750057 -0.027823522480849405, 35.51445703113427 0 C36.52659931476797 0.027823522480849405, 35.51445703113428 0.10555991580334612, 35.51445703113428 0.6333594948200734" stroke="#000000" stroke-width="1" fill="none"></path></g><g transform="translate(869.7374948485854 554.8494652923765) rotate(0 35.13581439309735 31.70751653548217)"><path d="M35.1358143930974 0 C42.13949009671485 -0.4106262961614764, 51.52422083130748 2.882116129220475, 57.25268503609988 7.069938765793513 C62.98114924089227 11.257761402366551, 67.97655387502584 18.618838234515728, 69.50659962185176 25.126935819438224 C71.03664536867768 31.63503340436072, 69.78365181174432 40.192419496500264, 66.43295951705537 46.11852427532849 C63.082267222366404 52.044629054156715, 56.13964441557535 57.98218222441772, 49.402445853718 60.68356449240756 C42.66524729186065 63.384946760397405, 33.12903828627123 64.05483192617965, 26.009768145911302 62.32681788326755 C18.890498005551375 60.598803840355465, 11.013348299392948 55.70228760215764, 6.68682501155843 50.315480234935045 C2.36030172372391 44.92867286771245, -0.34499599807609965 36.64934282571972, 0.050628418904182126 30.00597367993199 C0.4462528358844639 23.362604534144257, 4.1192269840850395 15.3926045592385, 9.06057151344012 10.45526536020865 C14.001916042795202 5.5179261611788, 25.352821781758458 2.124482712454335, 29.698695595034668 0.3819384857528938 C34.04456940831088 -1.3606057409485477, 34.2296279267536 -0.042035307492791794, 35.13581439309739 0 C36.04200085944118 0.042035307492791794, 35.1358143930974 0.1056917217849419, 35.1358143930974 0.6341503307096445 M35.1358143930974 0 C42.13949009671485 -0.4106262961614764, 51.52422083130748 2.882116129220475, 57.25268503609988 7.069938765793513 C62.98114924089227 11.257761402366551, 67.97655387502584 18.618838234515728, 69.50659962185176 25.126935819438224 C71.03664536867768 31.63503340436072, 69.78365181174432 40.192419496500264, 66.43295951705537 46.11852427532849 C63.082267222366404 52.044629054156715, 56.13964441557535 57.98218222441772, 49.402445853718 60.68356449240756 C42.66524729186065 63.384946760397405, 33.12903828627123 64.05483192617965, 26.009768145911302 62.32681788326755 C18.890498005551375 60.598803840355465, 11.013348299392948 55.70228760215764, 6.68682501155843 50.315480234935045 C2.36030172372391 44.92867286771245, -0.34499599807609965 36.64934282571972, 0.050628418904182126 30.00597367993199 C0.4462528358844639 23.362604534144257, 4.1192269840850395 15.3926045592385, 9.06057151344012 10.45526536020865 C14.001916042795202 5.5179261611788, 25.352821781758458 2.124482712454335, 29.698695595034668 0.3819384857528938 C34.04456940831088 -1.3606057409485477, 34.2296279267536 -0.042035307492791794, 35.13581439309739 0 C36.04200085944118 0.042035307492791794, 35.1358143930974 0.1056917217849419, 35.1358143930974 0.6341503307096445" stroke="none" stroke-width="0" fill="#000000"></path><path d="M35.1358143930974 0 C42.13949009671485 -0.4106262961614764, 51.52422083130748 2.882116129220475, 57.25268503609988 7.069938765793513 C62.98114924089227 11.257761402366551, 67.97655387502584 18.618838234515728, 69.50659962185176 25.126935819438224 C71.03664536867768 31.63503340436072, 69.78365181174432 40.192419496500264, 66.43295951705537 46.11852427532849 C63.082267222366404 52.044629054156715, 56.13964441557535 57.98218222441772, 49.402445853718 60.68356449240756 C42.66524729186065 63.384946760397405, 33.12903828627123 64.05483192617965, 26.009768145911302 62.32681788326755 C18.890498005551375 60.598803840355465, 11.013348299392948 55.70228760215764, 6.68682501155843 50.315480234935045 C2.36030172372391 44.92867286771245, -0.34499599807609965 36.64934282571972, 0.050628418904182126 30.00597367993199 C0.4462528358844639 23.362604534144257, 4.1192269840850395 15.3926045592385, 9.06057151344012 10.45526536020865 C14.001916042795202 5.5179261611788, 25.352821781758458 2.124482712454335, 29.698695595034668 0.3819384857528938 C34.04456940831088 -1.3606057409485477, 34.2296279267536 -0.042035307492791794, 35.13581439309739 0 C36.04200085944118 0.042035307492791794, 35.1358143930974 0.1056917217849419, 35.1358143930974 0.6341503307096445 M35.1358143930974 0 C42.13949009671485 -0.4106262961614764, 51.52422083130748 2.882116129220475, 57.25268503609988 7.069938765793513 C62.98114924089227 11.257761402366551, 67.97655387502584 18.618838234515728, 69.50659962185176 25.126935819438224 C71.03664536867768 31.63503340436072, 69.78365181174432 40.192419496500264, 66.43295951705537 46.11852427532849 C63.082267222366404 52.044629054156715, 56.13964441557535 57.98218222441772, 49.402445853718 60.68356449240756 C42.66524729186065 63.384946760397405, 33.12903828627123 64.05483192617965, 26.009768145911302 62.32681788326755 C18.890498005551375 60.598803840355465, 11.013348299392948 55.70228760215764, 6.68682501155843 50.315480234935045 C2.36030172372391 44.92867286771245, -0.34499599807609965 36.64934282571972, 0.050628418904182126 30.00597367993199 C0.4462528358844639 23.362604534144257, 4.1192269840850395 15.3926045592385, 9.06057151344012 10.45526536020865 C14.001916042795202 5.5179261611788, 25.352821781758458 2.124482712454335, 29.698695595034668 0.3819384857528938 C34.04456940831088 -1.3606057409485477, 34.2296279267536 -0.042035307492791794, 35.13581439309739 0 C36.04200085944118 0.042035307492791794, 35.1358143930974 0.1056917217849419, 35.1358143930974 0.6341503307096445" stroke="#000000" stroke-width="1" fill="none"></path></g><g transform="translate(128.14037269104415 45.1386192036578) rotate(0 336.75625671424007 23.207808554847634)"><path d="M0 0 L673.5125134284801 0 L673.5125134284801 46.41561710969527 L0 46.41561710969527" stroke="none" stroke-width="0" fill="#ced4da"></path><path d="M0 0 C199.64215321600608 0, 399.28430643201216 0, 673.5125134284801 0 M0 0 C249.67965150863805 0, 499.3593030172761 0, 673.5125134284801 0 M673.5125134284801 0 C673.5125134284801 14.26644626334184, 673.5125134284801 28.53289252668368, 673.5125134284801 46.41561710969527 M673.5125134284801 0 C673.5125134284801 16.226458766252822, 673.5125134284801 32.452917532505644, 673.5125134284801 46.41561710969527 M673.5125134284801 46.41561710969527 C537.6361680664802 46.41561710969527, 401.75982270448014 46.41561710969527, 0 46.41561710969527 M673.5125134284801 46.41561710969527 C477.2536555746541 46.41561710969527, 280.994797720828 46.41561710969527, 0 46.41561710969527 M0 46.41561710969527 C0 31.575761792188853, 0 16.735906474682437, 0 0 M0 46.41561710969527 C0 35.973713910402076, 0 25.531810711108886, 0 0" stroke="#ced4da" stroke-width="1" fill="none"></path></g><g transform="translate(146.61892365675567 58.47383946578098) rotate(0 10.558299103561694 9.822034599805669)"><path d="M10.558299103561682 0 C12.70743465388743 -0.12540191708839096, 15.612060477394063 0.9451768760742214, 17.345042946695628 2.2979195745022007 C19.078025415997192 3.6506622729301803, 20.56335868582025 6.0439341363668255, 20.956193919371074 8.116456190567876 C21.349029152921897 10.188978244768926, 20.833178321856224 12.910506592411991, 19.702054348000566 14.7330518997085 C18.570930374144908 16.555597207005007, 16.295267779089517 18.331948678573852, 14.16945007623713 19.051728034346922 C12.043632373384742 19.771507390119993, 9.072965833738625 19.771507390119996, 6.9471481308862355 19.051728034346926 C4.821330428033847 18.331948678573855, 2.545667832978457 16.555597207005007, 1.4145438591227997 14.7330518997085 C0.28341988526714235 12.910506592411991, -0.23243094579853157 10.188978244768924, 0.1604042877522911 8.116456190567874 C0.5532395213031138 6.043934136366824, 2.038572791126171 3.6506622729301803, 3.7715552604277356 2.2979195745022016 C5.5045377297293 0.9451768760742227, 9.427175129706022 0.35024648041768147, 10.55829910356168 0 C11.689423077417338 -0.35024648041768147, 10.558299103561682 0.03274011533268517, 10.558299103561682 0.1964406919961128 M10.558299103561682 0 C12.70743465388743 -0.12540191708839096, 15.612060477394063 0.9451768760742214, 17.345042946695628 2.2979195745022007 C19.078025415997192 3.6506622729301803, 20.56335868582025 6.0439341363668255, 20.956193919371074 8.116456190567876 C21.349029152921897 10.188978244768926, 20.833178321856224 12.910506592411991, 19.702054348000566 14.7330518997085 C18.570930374144908 16.555597207005007, 16.295267779089517 18.331948678573852, 14.16945007623713 19.051728034346922 C12.043632373384742 19.771507390119993, 9.072965833738625 19.771507390119996, 6.9471481308862355 19.051728034346926 C4.821330428033847 18.331948678573855, 2.545667832978457 16.555597207005007, 1.4145438591227997 14.7330518997085 C0.28341988526714235 12.910506592411991, -0.23243094579853157 10.188978244768924, 0.1604042877522911 8.116456190567874 C0.5532395213031138 6.043934136366824, 2.038572791126171 3.6506622729301803, 3.7715552604277356 2.2979195745022016 C5.5045377297293 0.9451768760742227, 9.427175129706022 0.35024648041768147, 10.55829910356168 0 C11.689423077417338 -0.35024648041768147, 10.558299103561682 0.03274011533268517, 10.558299103561682 0.1964406919961128" stroke="none" stroke-width="0" fill="#fa5252"></path><path d="M10.558299103561682 0 C12.70743465388743 -0.12540191708839096, 15.612060477394063 0.9451768760742214, 17.345042946695628 2.2979195745022007 C19.078025415997192 3.6506622729301803, 20.56335868582025 6.0439341363668255, 20.956193919371074 8.116456190567876 C21.349029152921897 10.188978244768926, 20.833178321856224 12.910506592411991, 19.702054348000566 14.7330518997085 C18.570930374144908 16.555597207005007, 16.295267779089517 18.331948678573852, 14.16945007623713 19.051728034346922 C12.043632373384742 19.771507390119993, 9.072965833738625 19.771507390119996, 6.9471481308862355 19.051728034346926 C4.821330428033847 18.331948678573855, 2.545667832978457 16.555597207005007, 1.4145438591227997 14.7330518997085 C0.28341988526714235 12.910506592411991, -0.23243094579853157 10.188978244768924, 0.1604042877522911 8.116456190567874 C0.5532395213031138 6.043934136366824, 2.038572791126171 3.6506622729301803, 3.7715552604277356 2.2979195745022016 C5.5045377297293 0.9451768760742227, 9.427175129706022 0.35024648041768147, 10.55829910356168 0 C11.689423077417338 -0.35024648041768147, 10.558299103561682 0.03274011533268517, 10.558299103561682 0.1964406919961128 M10.558299103561682 0 C12.70743465388743 -0.12540191708839096, 15.612060477394063 0.9451768760742214, 17.345042946695628 2.2979195745022007 C19.078025415997192 3.6506622729301803, 20.56335868582025 6.0439341363668255, 20.956193919371074 8.116456190567876 C21.349029152921897 10.188978244768926, 20.833178321856224 12.910506592411991, 19.702054348000566 14.7330518997085 C18.570930374144908 16.555597207005007, 16.295267779089517 18.331948678573852, 14.16945007623713 19.051728034346922 C12.043632373384742 19.771507390119993, 9.072965833738625 19.771507390119996, 6.9471481308862355 19.051728034346926 C4.821330428033847 18.331948678573855, 2.545667832978457 16.555597207005007, 1.4145438591227997 14.7330518997085 C0.28341988526714235 12.910506592411991, -0.23243094579853157 10.188978244768924, 0.1604042877522911 8.116456190567874 C0.5532395213031138 6.043934136366824, 2.038572791126171 3.6506622729301803, 3.7715552604277356 2.2979195745022016 C5.5045377297293 0.9451768760742227, 9.427175129706022 0.35024648041768147, 10.55829910356168 0 C11.689423077417338 -0.35024648041768147, 10.558299103561682 0.03274011533268517, 10.558299103561682 0.1964406919961128" stroke="#fa5252" stroke-width="1" fill="none"></path></g><g transform="translate(188.50882617872549 58.82201274014736) rotate(0 10.558299103561694 9.822034599805669)"><path d="M10.558299103561682 0 C12.70743465388743 -0.12540191708839096, 15.612060477394063 0.9451768760742214, 17.345042946695628 2.2979195745022007 C19.078025415997192 3.6506622729301803, 20.56335868582025 6.0439341363668255, 20.956193919371074 8.116456190567876 C21.349029152921897 10.188978244768926, 20.833178321856224 12.910506592411991, 19.702054348000566 14.7330518997085 C18.570930374144908 16.555597207005007, 16.295267779089517 18.331948678573852, 14.16945007623713 19.051728034346922 C12.043632373384742 19.771507390119993, 9.072965833738625 19.771507390119996, 6.9471481308862355 19.051728034346926 C4.821330428033847 18.331948678573855, 2.545667832978457 16.555597207005007, 1.4145438591227997 14.7330518997085 C0.28341988526714235 12.910506592411991, -0.23243094579853157 10.188978244768924, 0.1604042877522911 8.116456190567874 C0.5532395213031138 6.043934136366824, 2.038572791126171 3.6506622729301803, 3.7715552604277356 2.2979195745022016 C5.5045377297293 0.9451768760742227, 9.427175129706022 0.35024648041768147, 10.55829910356168 0 C11.689423077417338 -0.35024648041768147, 10.558299103561682 0.03274011533268517, 10.558299103561682 0.1964406919961128 M10.558299103561682 0 C12.70743465388743 -0.12540191708839096, 15.612060477394063 0.9451768760742214, 17.345042946695628 2.2979195745022007 C19.078025415997192 3.6506622729301803, 20.56335868582025 6.0439341363668255, 20.956193919371074 8.116456190567876 C21.349029152921897 10.188978244768926, 20.833178321856224 12.910506592411991, 19.702054348000566 14.7330518997085 C18.570930374144908 16.555597207005007, 16.295267779089517 18.331948678573852, 14.16945007623713 19.051728034346922 C12.043632373384742 19.771507390119993, 9.072965833738625 19.771507390119996, 6.9471481308862355 19.051728034346926 C4.821330428033847 18.331948678573855, 2.545667832978457 16.555597207005007, 1.4145438591227997 14.7330518997085 C0.28341988526714235 12.910506592411991, -0.23243094579853157 10.188978244768924, 0.1604042877522911 8.116456190567874 C0.5532395213031138 6.043934136366824, 2.038572791126171 3.6506622729301803, 3.7715552604277356 2.2979195745022016 C5.5045377297293 0.9451768760742227, 9.427175129706022 0.35024648041768147, 10.55829910356168 0 C11.689423077417338 -0.35024648041768147, 10.558299103561682 0.03274011533268517, 10.558299103561682 0.1964406919961128" stroke="none" stroke-width="0" fill="#fab005"></path><path d="M10.558299103561682 0 C12.70743465388743 -0.12540191708839096, 15.612060477394063 0.9451768760742214, 17.345042946695628 2.2979195745022007 C19.078025415997192 3.6506622729301803, 20.56335868582025 6.0439341363668255, 20.956193919371074 8.116456190567876 C21.349029152921897 10.188978244768926, 20.833178321856224 12.910506592411991, 19.702054348000566 14.7330518997085 C18.570930374144908 16.555597207005007, 16.295267779089517 18.331948678573852, 14.16945007623713 19.051728034346922 C12.043632373384742 19.771507390119993, 9.072965833738625 19.771507390119996, 6.9471481308862355 19.051728034346926 C4.821330428033847 18.331948678573855, 2.545667832978457 16.555597207005007, 1.4145438591227997 14.7330518997085 C0.28341988526714235 12.910506592411991, -0.23243094579853157 10.188978244768924, 0.1604042877522911 8.116456190567874 C0.5532395213031138 6.043934136366824, 2.038572791126171 3.6506622729301803, 3.7715552604277356 2.2979195745022016 C5.5045377297293 0.9451768760742227, 9.427175129706022 0.35024648041768147, 10.55829910356168 0 C11.689423077417338 -0.35024648041768147, 10.558299103561682 0.03274011533268517, 10.558299103561682 0.1964406919961128 M10.558299103561682 0 C12.70743465388743 -0.12540191708839096, 15.612060477394063 0.9451768760742214, 17.345042946695628 2.2979195745022007 C19.078025415997192 3.6506622729301803, 20.56335868582025 6.0439341363668255, 20.956193919371074 8.116456190567876 C21.349029152921897 10.188978244768926, 20.833178321856224 12.910506592411991, 19.702054348000566 14.7330518997085 C18.570930374144908 16.555597207005007, 16.295267779089517 18.331948678573852, 14.16945007623713 19.051728034346922 C12.043632373384742 19.771507390119993, 9.072965833738625 19.771507390119996, 6.9471481308862355 19.051728034346926 C4.821330428033847 18.331948678573855, 2.545667832978457 16.555597207005007, 1.4145438591227997 14.7330518997085 C0.28341988526714235 12.910506592411991, -0.23243094579853157 10.188978244768924, 0.1604042877522911 8.116456190567874 C0.5532395213031138 6.043934136366824, 2.038572791126171 3.6506622729301803, 3.7715552604277356 2.2979195745022016 C5.5045377297293 0.9451768760742227, 9.427175129706022 0.35024648041768147, 10.55829910356168 0 C11.689423077417338 -0.35024648041768147, 10.558299103561682 0.03274011533268517, 10.558299103561682 0.1964406919961128" stroke="#fab005" stroke-width="1" fill="none"></path></g><g transform="translate(233.36583878135843 59.726819720667265) rotate(0 10.558299103561694 9.822034599805669)"><path d="M10.558299103561682 0 C12.70743465388743 -0.12540191708839096, 15.612060477394063 0.9451768760742214, 17.345042946695628 2.2979195745022007 C19.078025415997192 3.6506622729301803, 20.56335868582025 6.0439341363668255, 20.956193919371074 8.116456190567876 C21.349029152921897 10.188978244768926, 20.833178321856224 12.910506592411991, 19.702054348000566 14.7330518997085 C18.570930374144908 16.555597207005007, 16.295267779089517 18.331948678573852, 14.16945007623713 19.051728034346922 C12.043632373384742 19.771507390119993, 9.072965833738625 19.771507390119996, 6.9471481308862355 19.051728034346926 C4.821330428033847 18.331948678573855, 2.545667832978457 16.555597207005007, 1.4145438591227997 14.7330518997085 C0.28341988526714235 12.910506592411991, -0.23243094579853157 10.188978244768924, 0.1604042877522911 8.116456190567874 C0.5532395213031138 6.043934136366824, 2.038572791126171 3.6506622729301803, 3.7715552604277356 2.2979195745022016 C5.5045377297293 0.9451768760742227, 9.427175129706022 0.35024648041768147, 10.55829910356168 0 C11.689423077417338 -0.35024648041768147, 10.558299103561682 0.03274011533268517, 10.558299103561682 0.1964406919961128 M10.558299103561682 0 C12.70743465388743 -0.12540191708839096, 15.612060477394063 0.9451768760742214, 17.345042946695628 2.2979195745022007 C19.078025415997192 3.6506622729301803, 20.56335868582025 6.0439341363668255, 20.956193919371074 8.116456190567876 C21.349029152921897 10.188978244768926, 20.833178321856224 12.910506592411991, 19.702054348000566 14.7330518997085 C18.570930374144908 16.555597207005007, 16.295267779089517 18.331948678573852, 14.16945007623713 19.051728034346922 C12.043632373384742 19.771507390119993, 9.072965833738625 19.771507390119996, 6.9471481308862355 19.051728034346926 C4.821330428033847 18.331948678573855, 2.545667832978457 16.555597207005007, 1.4145438591227997 14.7330518997085 C0.28341988526714235 12.910506592411991, -0.23243094579853157 10.188978244768924, 0.1604042877522911 8.116456190567874 C0.5532395213031138 6.043934136366824, 2.038572791126171 3.6506622729301803, 3.7715552604277356 2.2979195745022016 C5.5045377297293 0.9451768760742227, 9.427175129706022 0.35024648041768147, 10.55829910356168 0 C11.689423077417338 -0.35024648041768147, 10.558299103561682 0.03274011533268517, 10.558299103561682 0.1964406919961128" stroke="none" stroke-width="0" fill="#40c057"></path><path d="M10.558299103561682 0 C12.70743465388743 -0.12540191708839096, 15.612060477394063 0.9451768760742214, 17.345042946695628 2.2979195745022007 C19.078025415997192 3.6506622729301803, 20.56335868582025 6.0439341363668255, 20.956193919371074 8.116456190567876 C21.349029152921897 10.188978244768926, 20.833178321856224 12.910506592411991, 19.702054348000566 14.7330518997085 C18.570930374144908 16.555597207005007, 16.295267779089517 18.331948678573852, 14.16945007623713 19.051728034346922 C12.043632373384742 19.771507390119993, 9.072965833738625 19.771507390119996, 6.9471481308862355 19.051728034346926 C4.821330428033847 18.331948678573855, 2.545667832978457 16.555597207005007, 1.4145438591227997 14.7330518997085 C0.28341988526714235 12.910506592411991, -0.23243094579853157 10.188978244768924, 0.1604042877522911 8.116456190567874 C0.5532395213031138 6.043934136366824, 2.038572791126171 3.6506622729301803, 3.7715552604277356 2.2979195745022016 C5.5045377297293 0.9451768760742227, 9.427175129706022 0.35024648041768147, 10.55829910356168 0 C11.689423077417338 -0.35024648041768147, 10.558299103561682 0.03274011533268517, 10.558299103561682 0.1964406919961128 M10.558299103561682 0 C12.70743465388743 -0.12540191708839096, 15.612060477394063 0.9451768760742214, 17.345042946695628 2.2979195745022007 C19.078025415997192 3.6506622729301803, 20.56335868582025 6.0439341363668255, 20.956193919371074 8.116456190567876 C21.349029152921897 10.188978244768926, 20.833178321856224 12.910506592411991, 19.702054348000566 14.7330518997085 C18.570930374144908 16.555597207005007, 16.295267779089517 18.331948678573852, 14.16945007623713 19.051728034346922 C12.043632373384742 19.771507390119993, 9.072965833738625 19.771507390119996, 6.9471481308862355 19.051728034346926 C4.821330428033847 18.331948678573855, 2.545667832978457 16.555597207005007, 1.4145438591227997 14.7330518997085 C0.28341988526714235 12.910506592411991, -0.23243094579853157 10.188978244768924, 0.1604042877522911 8.116456190567874 C0.5532395213031138 6.043934136366824, 2.038572791126171 3.6506622729301803, 3.7715552604277356 2.2979195745022016 C5.5045377297293 0.9451768760742227, 9.427175129706022 0.35024648041768147, 10.55829910356168 0 C11.689423077417338 -0.35024648041768147, 10.558299103561682 0.03274011533268517, 10.558299103561682 0.1964406919961128" stroke="#40c057" stroke-width="1" fill="none"></path></g><g transform="translate(149.00044484988894 123.88607510356944) rotate(0.3921184794924897 316.3259411157155 171.59598997510045)"><text x="0" y="23.007290954362816" font-family="Cascadia" font-size="26.32956481613658px" fill="#ffffff" text-anchor="start" style="white-space: pre;" direction="ltr">&lt;script&gt;</text><text x="0" y="54.206561858926534" font-family="Cascadia" font-size="26.32956481613658px" fill="#ffffff" text-anchor="start" style="white-space: pre;" direction="ltr">let add = document.getElementbyId('b2);</text><text x="0" y="85.40583276349025" font-family="Cascadia" font-size="26.32956481613658px" fill="#ffffff" text-anchor="start" style="white-space: pre;" direction="ltr">add.addEventListener('click', added);</text><text x="0" y="116.60510366805397" font-family="Cascadia" font-size="26.32956481613658px" fill="#ffffff" text-anchor="start" style="white-space: pre;" direction="ltr">function added() {</text><text x="0" y="147.8043745726177" font-family="Cascadia" font-size="26.32956481613658px" fill="#ffffff" text-anchor="start" style="white-space: pre;" direction="ltr">   let para = document.createElement('p')</text><text x="0" y="179.0036454771814" font-family="Cascadia" font-size="26.32956481613658px" fill="#ffffff" text-anchor="start" style="white-space: pre;" direction="ltr"></text><text x="0" y="210.20291638174513" font-family="Cascadia" font-size="26.32956481613658px" fill="#ffffff" text-anchor="start" style="white-space: pre;" direction="ltr">}</text><text x="0" y="241.40218728630884" font-family="Cascadia" font-size="26.32956481613658px" fill="#ffffff" text-anchor="start" style="white-space: pre;" direction="ltr">para.textcontent = 'Paragraph added";</text><text x="0" y="272.60145819087256" font-family="Cascadia" font-size="26.32956481613658px" fill="#ffffff" text-anchor="start" style="white-space: pre;" direction="ltr">document.body.appendChild(para);</text><text x="0" y="303.8007290954363" font-family="Cascadia" font-size="26.32956481613658px" fill="#ffffff" text-anchor="start" style="white-space: pre;" direction="ltr">}</text><text x="0" y="335" font-family="Cascadia" font-size="26.32956481613658px" fill="#ffffff" text-anchor="start" style="white-space: pre;" direction="ltr">&lt;/script&gt;</text></g><g transform="translate(772.0091236347803 624.264498363341) rotate(0 84 10)"><text x="84" y="14" font-family="Virgil" font-size="16px" fill="#adb5bd" text-anchor="middle" style="white-space: pre;" direction="ltr">Made with Excalidraw</text></g></svg>